<svg id="Layer_1" data-name="Layer 1" xmlns="http://www.w3.org/2000/svg" viewBox="0 0 24.87 5.6">
  <defs>
    <style>
      .cls-1 {
        fill: #3d434e;
      }

      .cls-2 {
        fill: #ec2536;
      }
    </style>
  </defs>
  <title>protxx_logo_dark</title>
  <path class="cls-1" d="M9,2.91a2.71,2.71,0,0,1,.85-2,2.65,2.65,0,0,1,1.35-.7A2.68,2.68,0,0,1,11.82.2a2.75,2.75,0,0,1,2.62,2.41A2.74,2.74,0,0,1,9.12,3.84,2.89,2.89,0,0,1,9,2.91Zm4.5,0,0-.18s0-.09,0-0.13a1.77,1.77,0,0,0-.79-1.16,1.65,1.65,0,0,0-1.26-.24,1.74,1.74,0,0,0-1.1.73A1.67,1.67,0,0,0,10,3.18a1.71,1.71,0,0,0,.79,1.24,1.74,1.74,0,0,0,2.13-.18A1.77,1.77,0,0,0,13.48,2.94Z" transform="translate(-0.09 -0.2)"/>
  <path class="cls-1" d="M5.64,3.68V3.77c0,0.37,0,.75,0,1.12,0,0.09,0,.18,0,0.27a0.5,0.5,0,0,1-1,.08,0.71,0.71,0,0,1,0-.15q0-1.26,0-2.52c0-.57,0-1.14,0-1.71a0.82,0.82,0,0,1,0-.21A0.52,0.52,0,0,1,5.13.27h1.4A1.92,1.92,0,0,1,7,.32,1.7,1.7,0,0,1,8,2.87a1.78,1.78,0,0,1-.39.44l-0.13.1,0,0.07L8.17,4.65,8.29,4.88a0.57,0.57,0,0,1,.06.28,0.46,0.46,0,0,1-.11.27,0.52,0.52,0,0,1-.38.19,0.48,0.48,0,0,1-.35-0.13,0.61,0.61,0,0,1-.13-0.18L7.15,4.88,6.58,3.8l0-.07a0.14,0.14,0,0,0-.11-0.06H5.64Zm0-2.45c0,0.06,0,1.25,0,1.46v0h0.9a0.74,0.74,0,0,0,.22,0,0.78,0.78,0,0,0,.5-0.95,0.67,0.67,0,0,0-.56-0.51l-0.3,0H5.65Z" transform="translate(-0.09 -0.2)"/>
  <path class="cls-1" d="M1.11,3.68s0,0.05,0,.08c0,0.29,0,.57,0,0.86s0,0.32,0,.49a0.63,0.63,0,0,1,0,.19,0.5,0.5,0,0,1-.49.35A0.49,0.49,0,0,1,.12,5.28a0.66,0.66,0,0,1,0-.18q0-.74,0-1.49c0-.9,0-1.8,0-2.71A1.54,1.54,0,0,1,.1.74,0.52,0.52,0,0,1,.51.28H2.07a1.63,1.63,0,0,1,.55.09,1.7,1.7,0,0,1,.33,3.05,1.63,1.63,0,0,1-.69.24H1.11Zm0-2.44v1.5H2l0.15,0a0.78,0.78,0,0,0,.47-1.16,0.63,0.63,0,0,0-.46-0.31l-0.26,0c-0.27,0-.54,0-0.81,0h0Z" transform="translate(-0.09 -0.2)"/>
  <path class="cls-1" d="M16.11,1.23H15.32a0.65,0.65,0,0,1-.2,0A0.48,0.48,0,0,1,14.78.73a0.49,0.49,0,0,1,.5-0.5h2.78a0.48,0.48,0,0,1,.38.41,0.49,0.49,0,0,1,0,.26,0.48,0.48,0,0,1-.38.31h-0.9V5.09a0.74,0.74,0,0,1,0,.15,0.47,0.47,0,0,1-.35.39,0.5,0.5,0,0,1-.64-0.48c0-.08,0-0.16,0-0.24V1.34S16.11,1.27,16.11,1.23Z" transform="translate(-0.09 -0.2)"/>
  <path class="cls-2" d="M22.08,2.44a0.63,0.63,0,0,1-.14.42l-0.07.07-1,1-0.53.51-0.1.09a0.56,0.56,0,0,1-.52.07,0.46,0.46,0,0,1-.3-0.27A0.59,0.59,0,0,1,19.36,4a0.42,0.42,0,0,1,.09-0.23l0.07-.08,1.14-1.14,0.06-.06a0.08,0.08,0,0,0,0-.13l0,0-1.09-1.1A0.66,0.66,0,0,1,19.4,1,0.51,0.51,0,0,1,19.75.32a0.55,0.55,0,0,1,.53.12l0.11,0.1,1.53,1.53a0.56,0.56,0,0,1,.12.17A0.44,0.44,0,0,1,22.08,2.44Z" transform="translate(-0.09 -0.2)"/>
  <path class="cls-2" d="M22.25,3.5A0.62,0.62,0,0,1,22.43,3l0.83-.8L24,1.56l0.11-.09a0.56,0.56,0,0,1,.53-0.08,0.51,0.51,0,0,1,.25.77,1.2,1.2,0,0,1-.15.17l-1,1-0.1.1,0,0a0.06,0.06,0,0,0,0,.08l0,0.05,1.09,1.1,0.06,0.05a0.58,0.58,0,0,1,.13.59,0.5,0.5,0,0,1-.43.34,0.57,0.57,0,0,1-.42-0.13L24,5.46,22.41,3.91A0.54,0.54,0,0,1,22.25,3.5Z" transform="translate(-0.09 -0.2)"/>
  <path class="cls-1" d="M22.15,4.45a0.5,0.5,0,0,1-.15.39l-0.79.78a0.58,0.58,0,0,1-.3.17,0.62,0.62,0,0,1-.39,0,0.42,0.42,0,0,1-.18-0.15,0.67,0.67,0,0,1-.11-0.34A0.4,0.4,0,0,1,20.34,5l0.09-.1c0.27-.27.54-0.54,0.82-0.8a0.59,0.59,0,0,1,.15-0.11,0.47,0.47,0,0,1,.3,0L21.88,4a0.43,0.43,0,0,1,.26.37S22.15,4.42,22.15,4.45Z" transform="translate(-0.09 -0.2)"/>
  <path class="cls-1" d="M22,1.53a0.41,0.41,0,0,1,.11-0.3l0.06-.06L23,0.38A0.56,0.56,0,0,1,23.27.24a0.54,0.54,0,0,1,.53.89l-0.22.22L23,1.93a0.59,0.59,0,0,1-.6.15,0.43,0.43,0,0,1-.29-0.25A0.72,0.72,0,0,1,22,1.53Z" transform="translate(-0.09 -0.2)"/>
</svg>
