<?xml version="1.0" encoding="utf-8"?>
<!-- Generator: Adobe Illustrator 16.0.3, SVG Export Plug-In . SVG Version: 6.00 Build 0)  -->
<!DOCTYPE svg PUBLIC "-//W3C//DTD SVG 1.1//EN" "http://www.w3.org/Graphics/SVG/1.1/DTD/svg11.dtd">
<svg version="1.1" id="Layer_1" xmlns="http://www.w3.org/2000/svg" xmlns:xlink="http://www.w3.org/1999/xlink" x="0px" y="0px"
	 width="25px" height="6px" viewBox="0 0 25 6" enable-background="new 0 0 25 6" xml:space="preserve">
<path fill-rule="evenodd" clip-rule="evenodd" fill="#FDFDFD" d="M8.978,2.912c0.014-0.736,0.286-1.409,0.851-1.953
	c0.377-0.365,0.829-0.598,1.346-0.702c0.213-0.043,0.427-0.064,0.643-0.055c1,0.038,1.811,0.586,2.257,1.337
	c0.198,0.331,0.32,0.688,0.367,1.071c0.172,1.386-0.699,2.662-2.051,3c-0.308,0.078-0.622,0.098-0.938,0.068
	C10.389,5.582,9.468,4.863,9.124,3.84C9.027,3.554,8.981,3.259,8.978,2.912z M13.477,2.94c-0.005-0.051-0.01-0.117-0.017-0.182
	c-0.004-0.043-0.012-0.085-0.02-0.129c-0.105-0.497-0.368-0.886-0.794-1.162c-0.386-0.249-0.809-0.333-1.26-0.241
	c-0.463,0.096-0.832,0.345-1.102,0.732C10.028,2.327,9.925,2.737,9.989,3.18c0.076,0.529,0.339,0.947,0.787,1.24
	c0.371,0.242,0.779,0.326,1.216,0.258c0.348-0.053,0.652-0.203,0.91-0.443C13.272,3.889,13.461,3.461,13.477,2.94z"/>
<path fill-rule="evenodd" clip-rule="evenodd" fill="#FDFDFD" d="M5.637,3.68c0,0.036,0,0.064,0,0.091
	C5.635,4.145,5.635,4.518,5.632,4.893c0,0.092-0.005,0.182-0.008,0.273C5.619,5.365,5.479,5.613,5.165,5.643
	c-0.238,0.02-0.469-0.121-0.531-0.395C4.623,5.199,4.62,5.146,4.62,5.096C4.622,4.258,4.623,3.419,4.623,2.58
	c0-0.568-0.004-1.139-0.007-1.707c0-0.072,0.007-0.143,0.025-0.211C4.712,0.396,4.936,0.275,5.127,0.27
	c0.017,0,0.031-0.001,0.045-0.001C5.626,0.27,6.079,0.272,6.531,0.272c0.15,0,0.298,0.012,0.446,0.047
	c0.635,0.146,1.143,0.661,1.27,1.3C8.333,2.062,8.27,2.48,8.031,2.866C7.928,3.034,7.794,3.176,7.642,3.302
	C7.6,3.335,7.559,3.369,7.514,3.405c0.012,0.024,0.022,0.047,0.034,0.068C7.754,3.864,7.96,4.254,8.166,4.646
	c0.042,0.076,0.082,0.156,0.119,0.236c0.042,0.09,0.061,0.184,0.055,0.281C8.333,5.268,8.298,5.357,8.232,5.436
	c-0.1,0.115-0.228,0.182-0.379,0.188C7.72,5.629,7.605,5.58,7.506,5.492C7.45,5.441,7.408,5.381,7.374,5.314
	C7.299,5.172,7.222,5.029,7.147,4.883C6.958,4.525,6.771,4.164,6.582,3.804C6.571,3.781,6.56,3.759,6.546,3.737
	C6.52,3.7,6.484,3.677,6.438,3.675c-0.01,0-0.02,0-0.031,0c-0.238,0-0.477,0.002-0.717,0.002C5.675,3.677,5.661,3.679,5.637,3.68z
	 M5.65,1.234c-0.011,0.062-0.018,1.25-0.008,1.465C5.644,2.711,5.647,2.723,5.65,2.738c0.021,0.003,0.042,0.007,0.06,0.007
	c0.28,0,0.56,0,0.84-0.001c0.076,0,0.151-0.016,0.223-0.039c0.358-0.118,0.62-0.51,0.501-0.947C7.197,1.473,7.007,1.296,6.713,1.244
	C6.617,1.227,6.516,1.221,6.417,1.221c-0.244,0-0.487,0.005-0.731,0.008C5.674,1.229,5.662,1.233,5.65,1.234z"/>
<path fill-rule="evenodd" clip-rule="evenodd" fill="#FDFDFD" d="M1.112,3.68C1.111,3.709,1.108,3.733,1.108,3.759
	c0,0.286,0.001,0.573,0,0.862c0,0.162-0.004,0.324-0.006,0.488c0,0.063-0.006,0.127-0.025,0.188C1.008,5.51,0.813,5.65,0.583,5.643
	C0.36,5.639,0.179,5.496,0.115,5.283c-0.017-0.061-0.02-0.121-0.02-0.182c0.001-0.496,0.001-0.992,0.001-1.487
	C0.095,2.713,0.092,1.81,0.092,0.907c0-0.056,0-0.112,0.006-0.167c0.029-0.231,0.184-0.404,0.409-0.457
	C0.551,0.272,0.599,0.27,0.644,0.27c0.476,0,0.952,0.002,1.427,0.004c0.188,0,0.368,0.032,0.545,0.094
	c0.58,0.199,1.011,0.71,1.118,1.311c0.122,0.687-0.2,1.377-0.785,1.741C2.737,3.552,2.507,3.637,2.258,3.664
	C2.192,3.67,2.127,3.675,2.061,3.675C1.773,3.679,1.486,3.677,1.198,3.677C1.171,3.677,1.145,3.679,1.112,3.68z M1.117,1.243
	c0,0.029,0,0.056,0,0.084c0,0.399,0,0.798,0,1.197c0,0.059,0,0.117,0,0.175c0.001,0.014,0.005,0.028,0.008,0.042
	c0.012,0.001,0.021,0.002,0.027,0.002c0.297,0,0.594,0,0.892-0.001c0.051,0,0.102-0.008,0.151-0.021
	c0.472-0.116,0.754-0.688,0.468-1.163c-0.105-0.172-0.257-0.28-0.457-0.312C2.12,1.233,2.034,1.228,1.947,1.224
	C1.678,1.213,1.409,1.229,1.14,1.234C1.136,1.234,1.13,1.237,1.117,1.243z"/>
<path fill-rule="evenodd" clip-rule="evenodd" fill="#FDFDFD" d="M16.115,1.233c-0.037,0-0.063,0-0.091,0c-0.233,0-0.468,0-0.702,0
	c-0.068,0-0.138-0.008-0.202-0.029c-0.212-0.067-0.346-0.245-0.344-0.478c0.004-0.139,0.046-0.266,0.151-0.363
	c0.098-0.091,0.213-0.135,0.347-0.135c0.359,0,0.72-0.003,1.081-0.001c0.523,0,1.047,0.001,1.572,0.002
	c0.043,0,0.085,0.004,0.129,0.011c0.165,0.029,0.34,0.171,0.377,0.41c0.013,0.089,0.008,0.178-0.027,0.262
	c-0.069,0.172-0.195,0.275-0.378,0.31c-0.045,0.009-0.096,0.012-0.146,0.012c-0.22,0.001-0.445,0-0.669,0c-0.025,0-0.054,0-0.087,0
	c-0.002,0.019-0.004,0.034-0.006,0.049c0,0.022,0,0.045,0,0.068c0,1.245,0,2.49,0,3.736c0,0.051-0.002,0.102-0.012,0.15
	c-0.036,0.203-0.159,0.332-0.354,0.389c-0.364,0.1-0.64-0.191-0.64-0.479c0.002-0.078,0-0.156,0-0.236c0-1.192,0-2.384,0-3.575
	C16.115,1.304,16.115,1.274,16.115,1.233z"/>
<path fill-rule="evenodd" clip-rule="evenodd" fill="#EC2536" d="M22.081,2.445c0,0.167-0.04,0.305-0.14,0.425
	c-0.021,0.025-0.044,0.049-0.068,0.072c-0.338,0.325-0.676,0.652-1.015,0.979C20.683,4.09,20.51,4.26,20.332,4.428
	c-0.032,0.033-0.066,0.063-0.104,0.09c-0.162,0.113-0.338,0.135-0.522,0.072c-0.139-0.045-0.238-0.135-0.295-0.27
	c-0.035-0.086-0.06-0.178-0.052-0.273c0.007-0.088,0.035-0.163,0.088-0.232c0.023-0.028,0.047-0.055,0.07-0.081
	c0.379-0.38,0.759-0.759,1.136-1.14c0.02-0.019,0.041-0.038,0.063-0.058c0.046-0.047,0.046-0.083,0.003-0.134
	c-0.013-0.018-0.029-0.032-0.049-0.048c-0.365-0.368-0.729-0.737-1.095-1.104c-0.081-0.083-0.144-0.18-0.173-0.292
	c-0.074-0.284,0.076-0.562,0.349-0.64c0.199-0.058,0.378-0.014,0.533,0.117c0.036,0.032,0.073,0.066,0.107,0.101
	c0.508,0.512,1.019,1.023,1.526,1.535c0.05,0.051,0.095,0.106,0.123,0.173C22.07,2.313,22.086,2.385,22.081,2.445z"/>
<path fill-rule="evenodd" clip-rule="evenodd" fill="#EC2536" d="M22.246,3.5c0.005-0.175,0.061-0.327,0.188-0.45
	c0.275-0.268,0.553-0.535,0.829-0.801c0.238-0.229,0.476-0.458,0.714-0.688c0.035-0.033,0.07-0.065,0.11-0.093
	c0.162-0.121,0.347-0.144,0.535-0.08c0.304,0.105,0.45,0.496,0.249,0.772c-0.043,0.059-0.09,0.115-0.145,0.167
	c-0.329,0.331-0.662,0.661-0.993,0.99c-0.035,0.034-0.07,0.067-0.104,0.102c-0.015,0.015-0.029,0.029-0.042,0.045
	c-0.021,0.033-0.021,0.052,0,0.084c0.013,0.018,0.03,0.036,0.047,0.051c0.36,0.368,0.726,0.733,1.089,1.1
	c0.016,0.018,0.038,0.035,0.055,0.053c0.152,0.172,0.194,0.371,0.126,0.588c-0.06,0.189-0.239,0.32-0.432,0.336
	c-0.158,0.014-0.298-0.029-0.421-0.127c-0.035-0.025-0.067-0.057-0.096-0.088c-0.519-0.518-1.031-1.039-1.549-1.556
	C22.295,3.792,22.243,3.658,22.246,3.5z"/>
<path fill-rule="evenodd" clip-rule="evenodd" fill="#FDFDFD" d="M22.149,4.451c0.005,0.15-0.046,0.279-0.152,0.385
	c-0.265,0.262-0.529,0.523-0.792,0.785c-0.085,0.082-0.182,0.145-0.303,0.166c-0.131,0.025-0.262,0.016-0.385-0.041
	c-0.073-0.035-0.134-0.086-0.177-0.154c-0.067-0.104-0.102-0.219-0.107-0.344c-0.002-0.113,0.035-0.209,0.111-0.291
	c0.031-0.035,0.063-0.066,0.095-0.1c0.269-0.273,0.541-0.543,0.822-0.805c0.045-0.041,0.092-0.078,0.15-0.105
	c0.1-0.043,0.2-0.045,0.304-0.021c0.058,0.013,0.113,0.033,0.165,0.058c0.157,0.072,0.241,0.199,0.26,0.369
	C22.146,4.385,22.146,4.418,22.149,4.451z"/>
<path fill-rule="evenodd" clip-rule="evenodd" fill="#FDFDFD" d="M22.049,1.533c-0.008-0.107,0.032-0.208,0.108-0.298
	c0.018-0.021,0.036-0.042,0.058-0.06c0.271-0.264,0.542-0.527,0.815-0.791c0.068-0.068,0.149-0.118,0.243-0.145
	c0.32-0.092,0.699,0.142,0.68,0.538c-0.005,0.134-0.058,0.25-0.149,0.349c-0.072,0.075-0.145,0.149-0.221,0.224
	C23.39,1.542,23.195,1.736,23,1.928c-0.171,0.166-0.378,0.21-0.604,0.148c-0.137-0.036-0.23-0.123-0.289-0.25
	C22.065,1.736,22.052,1.641,22.049,1.533z"/>
</svg>
