<?xml version="1.0" encoding="utf-8"?>
<!-- Generator: Adobe Illustrator 16.0.3, SVG Export Plug-In . SVG Version: 6.00 Build 0)  -->
<!DOCTYPE svg PUBLIC "-//W3C//DTD SVG 1.1//EN" "http://www.w3.org/Graphics/SVG/1.1/DTD/svg11.dtd">
<svg version="1.1" id="Layer_1" xmlns="http://www.w3.org/2000/svg" xmlns:xlink="http://www.w3.org/1999/xlink" x="0px" y="0px"
	 width="25px" height="25px" viewBox="0 0 25 25" enable-background="new 0 0 25 25" xml:space="preserve">
<circle fill-rule="evenodd" clip-rule="evenodd" fill="#EE2436" cx="12.5" cy="12.5" r="12.125"/>
<path fill-rule="evenodd" clip-rule="evenodd" fill="#FFFFFF" d="M16.382,3.244c0.265,0.166,0.35,0.401,0.346,0.715
	c-0.015,1.149-0.005,2.3-0.007,3.449c0,0.512-0.156,0.669-0.672,0.669c-2.123,0.001-4.246,0.001-6.369,0
	c-0.535,0-0.68-0.15-0.681-0.695C8.998,7.053,8.991,6.725,9.001,6.396c0.007-0.198-0.07-0.269-0.267-0.268
	C7.69,6.135,6.646,6.126,5.603,6.136C5.245,6.139,5.08,6.339,5.079,6.739c-0.003,1.49-0.001,2.979-0.001,4.47
	c0,1.971-0.001,3.941,0,5.912c0,0.558,0.148,0.702,0.711,0.704c0.323,0.001,0.647,0,0.971,0c0.017-0.03,0.033-0.061,0.05-0.091
	c-0.171-0.179-0.345-0.355-0.513-0.537c-0.242-0.262-0.256-0.506-0.037-0.706c0.247-0.225,0.475-0.139,0.681,0.065
	c0.45,0.445,0.901,0.891,1.343,1.345c0.272,0.28,0.27,0.469-0.011,0.757c-0.442,0.454-0.896,0.896-1.342,1.346
	c-0.214,0.215-0.441,0.264-0.681,0.048c-0.206-0.187-0.198-0.438,0.034-0.679c0.169-0.175,0.36-0.328,0.534-0.568
	c-1.088-0.033-2.222,0.108-2.692-1.191c0-3.757,0-7.514,0-11.271c0.029-0.034,0.071-0.063,0.086-0.104
	c0.27-0.735,0.811-1.042,1.575-1.03c0.819,0.013,1.638,0.003,2.457,0.003c0.755,0,0.749,0,0.757-0.758
	c0.004-0.42-0.106-0.87,0.267-1.21C11.639,3.244,14.011,3.244,16.382,3.244z M9.945,7.112c1.962,0,3.889,0,5.83,0
	c0-0.978,0-1.923,0-2.892c-1.951,0-3.88,0-5.83,0C9.945,5.19,9.945,6.136,9.945,7.112z"/>
<path fill-rule="evenodd" clip-rule="evenodd" fill="#FFFFFF" d="M9.338,20.713c-0.264-0.167-0.35-0.402-0.346-0.716
	c0.016-1.161,0.005-2.322,0.007-3.484C9,16.044,9.164,15.88,9.634,15.88c2.147-0.002,4.294-0.002,6.441,0
	c0.489,0,0.645,0.161,0.646,0.658c0.001,0.481,0.009,0.963-0.004,1.443c-0.007,0.231,0.049,0.339,0.309,0.337
	c1.009-0.012,2.018-0.001,3.026-0.007c0.398-0.003,0.586-0.188,0.587-0.581c0.005-1.572,0.005-3.145,0-4.716
	c-0.001-0.385-0.179-0.56-0.559-0.567c-0.371-0.007-0.744-0.001-1.116-0.001c-0.018,0.028-0.035,0.058-0.053,0.086
	c0.163,0.171,0.326,0.34,0.488,0.511c0.255,0.271,0.28,0.498,0.082,0.708c-0.199,0.21-0.467,0.188-0.735-0.076
	c-0.436-0.428-0.868-0.858-1.294-1.295c-0.292-0.298-0.292-0.482,0-0.782c0.435-0.445,0.875-0.885,1.318-1.32
	c0.257-0.251,0.5-0.265,0.708-0.058c0.201,0.201,0.177,0.438-0.077,0.708c-0.145,0.153-0.294,0.303-0.438,0.456
	c-0.012,0.013-0.006,0.043-0.014,0.129c1.064-0.033,2.193-0.156,2.645,1.17c0,1.808,0,3.616,0,5.424
	c-0.029,0.034-0.071,0.063-0.087,0.104c-0.274,0.733-0.816,1.038-1.582,1.026c-0.854-0.014-1.709-0.008-2.563-0.002
	c-0.746,0.005-0.64-0.092-0.636,0.624c0.002,0.342-0.01,0.658-0.345,0.854C14.034,20.713,11.687,20.713,9.338,20.713z M9.981,16.813
	c-0.027,0.078-0.049,0.111-0.049,0.144c-0.005,0.856-0.003,1.713-0.011,2.569c-0.003,0.257,0.164,0.235,0.332,0.235
	c1.736,0,3.473-0.006,5.209,0.005c0.267,0.002,0.345-0.085,0.34-0.343c-0.014-0.739-0.018-1.479,0.001-2.218
	c0.009-0.302-0.072-0.402-0.391-0.4c-1.701,0.017-3.402,0.008-5.104,0.008C10.196,16.813,10.083,16.813,9.981,16.813z"/>
<path fill-rule="evenodd" clip-rule="evenodd" fill="#FFFFFF" d="M12.86,14.377c-1.067,0-2.135,0.002-3.202,0
	C9.151,14.376,9,14.23,8.999,13.738c-0.002-1.173-0.002-2.347,0-3.52C9,9.735,9.149,9.58,9.622,9.58
	c2.158-0.002,4.316-0.002,6.475,0c0.473,0,0.623,0.155,0.624,0.638c0.002,1.173,0.002,2.346,0,3.519
	c-0.001,0.493-0.151,0.64-0.658,0.641C14.995,14.379,13.928,14.377,12.86,14.377z M15.769,10.529c-1.955,0-3.881,0-5.816,0
	c0,0.984,0,1.938,0,2.898c1.955,0,3.88,0,5.816,0C15.769,12.442,15.769,11.488,15.769,10.529z"/>
</svg>
