<?xml version="1.0" encoding="utf-8"?>
<!-- Generator: Adobe Illustrator 16.0.3, SVG Export Plug-In . SVG Version: 6.00 Build 0)  -->
<!DOCTYPE svg PUBLIC "-//W3C//DTD SVG 1.1//EN" "http://www.w3.org/Graphics/SVG/1.1/DTD/svg11.dtd">
<svg version="1.1" id="Layer_1" xmlns="http://www.w3.org/2000/svg" xmlns:xlink="http://www.w3.org/1999/xlink" x="0px" y="0px"
	 width="25px" height="25px" viewBox="0 0 25 25" enable-background="new 0 0 25 25" xml:space="preserve">
<g>
	<circle fill-rule="evenodd" clip-rule="evenodd" fill="#46BA80" cx="12.5" cy="12.5" r="12.125"/>
	<g>
		<path fill-rule="evenodd" clip-rule="evenodd" fill="#FFFFFF" d="M11.984,22.398c-0.588-0.266-1.129-0.586-1.407-1.215
			c-0.022-0.053-0.109-0.088-0.174-0.107c-0.547-0.18-0.772-0.48-0.776-1.061c-0.004-0.652-0.017-1.307,0.003-1.957
			c0.04-1.357-0.486-2.521-1.222-3.607c-0.503-0.744-0.874-1.525-1.043-2.416c-0.515-2.709,1.589-5.622,4.334-5.97
			c2.961-0.375,5.429,1.406,5.937,4.351c0.23,1.332-0.065,2.594-0.842,3.722c-0.665,0.971-1.276,1.977-1.376,3.178
			c-0.071,0.869-0.033,1.746-0.039,2.621c-0.006,0.664-0.177,0.904-0.812,1.145c-0.061,0.023-0.131,0.074-0.157,0.129
			c-0.303,0.627-0.825,0.979-1.465,1.188C12.625,22.398,12.306,22.398,11.984,22.398z M11.115,12.772
			c-0.023-0.005-0.048-0.011-0.072-0.017c0.014,0.016,0.028,0.03,0.043,0.045c0.286,0.913,0.605,1.817,0.844,2.739
			c0.167,0.648,0.223,1.324,0.327,1.99c0.14,0,0.273,0,0.438,0c0.091-1.646,0.509-3.207,1.176-4.794
			c-0.172,0.08-0.251,0.109-0.322,0.151c-0.736,0.432-1.47,0.424-2.201-0.009C11.273,12.834,11.192,12.806,11.115,12.772z
			 M14.542,17.523c0.027-0.199,0.045-0.357,0.068-0.514c0.19-1.234,0.788-2.285,1.463-3.309c1.031-1.562,1.114-3.195,0.12-4.788
			c-1.003-1.605-2.524-2.278-4.389-2.017c-3.062,0.429-4.652,3.944-2.992,6.611c0.778,1.25,1.547,2.482,1.64,4.012
			c0.321,0,0.608,0,0.935,0c-0.062-0.488-0.065-0.963-0.188-1.404c-0.279-1.016-0.604-2.018-0.935-3.017
			c-0.148-0.448-0.133-0.753,0.139-1.019c0.275-0.269,0.633-0.307,1.057-0.105c0.109,0.053,0.215,0.122,0.319,0.185
			c0.453,0.273,0.904,0.278,1.354-0.008c0.083-0.054,0.167-0.107,0.253-0.153c0.438-0.228,0.801-0.205,1.097,0.065
			c0.301,0.275,0.324,0.596,0.143,1.078c-0.264,0.7-0.54,1.399-0.729,2.122c-0.189,0.729-0.277,1.482-0.415,2.26
			C13.888,17.523,14.202,17.523,14.542,17.523z M14.503,18.422c-1.338,0-2.659,0-3.996,0c0,0.17,0,0.32,0,0.477
			c1.347,0,2.669,0,3.996,0C14.503,18.732,14.503,18.588,14.503,18.422z M14.489,19.756c-1.329,0-2.649,0-3.977,0
			c0,0.172,0,0.32,0,0.506c0.149,0,0.27,0,0.391,0c1.067,0,2.136-0.018,3.203,0.01C14.496,20.279,14.585,20.137,14.489,19.756z
			 M11.537,21.119c0.643,0.621,1.471,0.604,1.873,0C12.8,21.119,12.198,21.119,11.537,21.119z"/>
		<path fill-rule="evenodd" clip-rule="evenodd" fill="#FFFFFF" d="M12.798,3.181c0.354,0.514,0.2,1.081,0.139,1.627
			C12.926,4.903,12.7,5.04,12.575,5.04c-0.126,0-0.35-0.14-0.36-0.236c-0.056-0.545-0.225-1.111,0.14-1.624
			C12.502,3.181,12.649,3.181,12.798,3.181z"/>
		<path fill-rule="evenodd" clip-rule="evenodd" fill="#FFFFFF" d="M4.889,9.094c0.203-0.265,0.453-0.326,0.773-0.222
			C5.915,8.955,6.187,8.984,6.445,9.05c0.263,0.067,0.403,0.24,0.336,0.516C6.718,9.823,6.518,9.931,6.275,9.86
			C5.807,9.723,5.267,9.792,4.889,9.39C4.889,9.292,4.889,9.193,4.889,9.094z"/>
		<path fill-rule="evenodd" clip-rule="evenodd" fill="#FFFFFF" d="M20.263,9.39c-0.432,0.416-1.011,0.381-1.542,0.467
			c-0.101,0.016-0.323-0.208-0.342-0.342C18.36,9.384,18.5,9.141,18.624,9.097c0.379-0.134,0.78-0.234,1.18-0.264
			c0.144-0.011,0.306,0.217,0.459,0.335C20.263,9.242,20.263,9.316,20.263,9.39z"/>
		<path fill-rule="evenodd" clip-rule="evenodd" fill="#FFFFFF" d="M19.893,13.869c0.006,0.379-0.248,0.598-0.515,0.508
			c-0.362-0.117-0.731-0.236-1.058-0.424c-0.134-0.076-0.25-0.344-0.225-0.5c0.037-0.239,0.265-0.347,0.519-0.255
			c0.347,0.124,0.694,0.247,1.026,0.407C19.764,13.662,19.843,13.814,19.893,13.869z"/>
		<path fill-rule="evenodd" clip-rule="evenodd" fill="#FFFFFF" d="M6.668,13.112c0.124,0.113,0.323,0.21,0.338,0.329
			c0.021,0.162-0.051,0.43-0.17,0.496c-0.352,0.193-0.737,0.336-1.125,0.436c-0.125,0.031-0.374-0.102-0.432-0.225
			c-0.059-0.119,0.001-0.416,0.1-0.471C5.772,13.461,6.201,13.311,6.668,13.112z"/>
		<path fill-rule="evenodd" clip-rule="evenodd" fill="#FFFFFF" d="M7.674,4.973c0.143,0.078,0.25,0.111,0.325,0.181
			C8.243,5.377,8.481,5.61,8.71,5.85c0.188,0.196,0.217,0.419,0.007,0.615C8.521,6.646,8.313,6.619,8.126,6.438
			C7.888,6.208,7.633,5.99,7.428,5.732C7.339,5.621,7.305,5.408,7.345,5.27C7.378,5.151,7.553,5.075,7.674,4.973z"/>
		<path fill-rule="evenodd" clip-rule="evenodd" fill="#FFFFFF" d="M17.522,5.014c0.067,0.051,0.23,0.113,0.273,0.222
			c0.051,0.127,0.054,0.345-0.024,0.438c-0.251,0.3-0.533,0.582-0.839,0.824c-0.097,0.074-0.354,0.056-0.459-0.024
			c-0.103-0.077-0.189-0.359-0.133-0.428c0.292-0.355,0.632-0.674,0.961-1C17.328,5.02,17.395,5.031,17.522,5.014z"/>
		<path fill-rule="evenodd" clip-rule="evenodd" fill="#FFFFFF" d="M11.086,12.8c-0.015-0.015-0.029-0.029-0.043-0.045
			c0.024,0.006,0.049,0.012,0.073,0.017C11.106,12.782,11.096,12.792,11.086,12.8z"/>
	</g>
</g>
</svg>
