<?xml version="1.0" encoding="utf-8"?>
<!-- Generator: Adobe Illustrator 16.0.3, SVG Export Plug-In . SVG Version: 6.00 Build 0)  -->
<!DOCTYPE svg PUBLIC "-//W3C//DTD SVG 1.1//EN" "http://www.w3.org/Graphics/SVG/1.1/DTD/svg11.dtd">
<svg version="1.1" id="Layer_1" xmlns="http://www.w3.org/2000/svg" xmlns:xlink="http://www.w3.org/1999/xlink" x="0px" y="0px"
	 width="25px" height="25px" viewBox="0 0 25 25" enable-background="new 0 0 25 25" xml:space="preserve">
<g>
	<circle fill-rule="evenodd" clip-rule="evenodd" fill="#46BA80" cx="12.5" cy="12.448" r="12.125"/>
	<path fill-rule="evenodd" clip-rule="evenodd" fill="#FFFFFF" d="M3.155,14.371c0.428-0.142,0.857-0.281,1.283-0.428
		c0.108-0.039,0.217-0.072,0.272-0.203c0.171-0.406,0.36-0.807,0.554-1.238c-0.103-0.208-0.22-0.442-0.332-0.679
		c-0.104-0.226-0.202-0.454-0.3-0.67C5,10.779,5.365,10.412,5.75,10.023c0.372,0.183,0.76,0.367,1.137,0.567
		c0.166,0.087,0.297,0.079,0.464-0.005c0.264-0.134,0.542-0.248,0.826-0.335C8.381,10.189,8.5,10.1,8.561,9.885
		C8.648,9.578,8.774,9.281,8.884,8.98c0.081-0.22,0.117-0.25,0.332-0.253c0.386-0.005,0.772,0.004,1.16-0.003
		c0.143-0.001,0.206,0.056,0.251,0.197c0.104,0.339,0.245,0.671,0.354,1.009c0.058,0.177,0.162,0.26,0.34,0.316
		c0.361,0.113,0.711,0.262,1.121,0.419c0.401-0.197,0.86-0.421,1.296-0.63c0.391,0.386,0.768,0.758,1.157,1.144
		c-0.185,0.37-0.37,0.758-0.572,1.139c-0.082,0.153-0.066,0.279,0.007,0.433c0.131,0.279,0.246,0.567,0.344,0.859
		c0.062,0.186,0.135,0.304,0.344,0.359c0.312,0.082,0.601,0.23,0.906,0.323c0.154,0.049,0.219,0.113,0.217,0.274
		c-0.007,0.41-0.005,0.82,0,1.23c0,0.13-0.047,0.199-0.168,0.239c-0.271,0.093-0.532,0.212-0.807,0.287
		c-0.291,0.08-0.463,0.235-0.541,0.537c-0.086,0.332-0.224,0.651-0.356,1.021c0.199,0.406,0.421,0.867,0.631,1.299
		c-0.388,0.384-0.755,0.747-1.146,1.135c-0.154-0.073-0.344-0.168-0.536-0.26c-0.217-0.1-0.43-0.214-0.653-0.29
		c-0.101-0.035-0.241-0.026-0.34,0.016c-0.33,0.131-0.646,0.304-0.978,0.428c-0.141,0.054-0.214,0.127-0.258,0.257
		c-0.117,0.349-0.251,0.694-0.344,1.049c-0.033,0.117-0.119,0.164-0.168,0.252c-0.506,0-1.014,0-1.522,0
		c-0.136-0.416-0.286-0.828-0.4-1.249c-0.051-0.188-0.154-0.275-0.319-0.342c-0.372-0.148-0.74-0.313-1.144-0.485
		c-0.416,0.195-0.88,0.408-1.325,0.618c-0.38-0.383-0.752-0.756-1.133-1.137c0.201-0.432,0.412-0.882,0.606-1.298
		c-0.174-0.421-0.335-0.816-0.499-1.21c-0.047-0.111-0.116-0.206-0.236-0.246c-0.449-0.15-0.899-0.3-1.348-0.452
		C3.155,15.435,3.155,14.903,3.155,14.371z M12.357,15.193c-0.02-1.458-1.112-2.593-2.588-2.611
		c-1.392-0.017-2.549,1.122-2.574,2.536c-0.028,1.449,1.107,2.647,2.568,2.646C11.239,17.76,12.32,16.597,12.357,15.193z"/>
	<path fill-rule="evenodd" clip-rule="evenodd" fill="#FFFFFF" d="M21.133,8.719c-0.073,0.127-0.148,0.255-0.217,0.387
		c-0.043,0.083-0.073,0.171-0.109,0.259c-0.292,0-0.568,0-0.921,0c-0.116,0.127-0.262,0.304-0.424,0.466
		c-0.079,0.078-0.082,0.164-0.082,0.262c0.003,0.227,0.002,0.456,0.002,0.721c-0.255,0.108-0.524,0.222-0.793,0.337
		c-0.155-0.171-0.306-0.298-0.41-0.458c-0.084-0.131-0.172-0.178-0.32-0.171c-0.193,0.01-0.384,0.001-0.658,0.001
		c-0.115,0.131-0.272,0.297-0.417,0.473c-0.111,0.136-0.244,0.142-0.388,0.091c-0.08-0.024-0.15-0.071-0.229-0.104
		c-0.148-0.066-0.352-0.093-0.435-0.205c-0.075-0.103-0.024-0.3-0.028-0.454c-0.004-0.133-0.002-0.266-0.002-0.372
		c-0.197-0.205-0.382-0.393-0.563-0.58c-0.243,0-0.484-0.007-0.725,0.003c-0.115,0.003-0.188-0.039-0.228-0.136
		c-0.085-0.22-0.164-0.443-0.248-0.676c0.203-0.196,0.405-0.386,0.622-0.592c0-0.26,0-0.519,0-0.857
		c-0.166-0.152-0.395-0.358-0.623-0.567c0.089-0.243,0.165-0.466,0.256-0.685c0.055-0.131,0.159-0.211,0.316-0.18
		c0.058,0.012,0.117,0.026,0.175,0.032c0.131,0.012,0.264,0.037,0.393,0.022c0.071-0.009,0.175-0.068,0.197-0.129
		c0.082-0.243,0.445-0.262,0.435-0.576c-0.01-0.238-0.001-0.479-0.001-0.748c0.158-0.07,0.321-0.136,0.479-0.211
		c0.082-0.037,0.155-0.092,0.234-0.141c0.047,0,0.094,0,0.145,0c0.18,0.22,0.358,0.441,0.531,0.653c0.26,0,0.487,0.005,0.716-0.003
		c0.077-0.003,0.177-0.026,0.224-0.077c0.171-0.182,0.324-0.381,0.485-0.573c0.049,0,0.096,0,0.145,0
		c0.186,0.096,0.363,0.204,0.558,0.281c0.145,0.058,0.18,0.148,0.157,0.28c-0.011,0.059-0.048,0.115-0.048,0.171
		c0,0.167-0.045,0.372,0.033,0.491c0.144,0.218,0.334,0.447,0.561,0.55c0.194,0.089,0.467,0.009,0.706,0
		c0.033,0,0.066-0.012,0.131-0.022c0.049,0.104,0.1,0.209,0.148,0.314c0.073,0.157,0.146,0.316,0.22,0.475c0,0.024,0,0.047,0,0.072
		c-0.184,0.169-0.37,0.335-0.548,0.512c-0.048,0.045-0.091,0.113-0.102,0.178c-0.093,0.632-0.033,0.765,0.506,1.17
		c0.046,0.033,0.095,0.065,0.144,0.098C21.133,8.572,21.133,8.645,21.133,8.719z M17.51,9.012c0.74,0.023,1.521-0.574,1.503-1.5
		c-0.016-0.796-0.663-1.397-1.416-1.427c-0.876-0.035-1.536,0.695-1.538,1.456C16.059,8.265,16.703,9.047,17.51,9.012z"/>
</g>
</svg>
