<?xml version="1.0" encoding="utf-8"?>
<!-- Generator: Adobe Illustrator 16.0.3, SVG Export Plug-In . SVG Version: 6.00 Build 0)  -->
<!DOCTYPE svg PUBLIC "-//W3C//DTD SVG 1.1//EN" "http://www.w3.org/Graphics/SVG/1.1/DTD/svg11.dtd">
<svg version="1.1" id="Layer_1" xmlns="http://www.w3.org/2000/svg" xmlns:xlink="http://www.w3.org/1999/xlink" x="0px" y="0px"
	 width="25px" height="25px" viewBox="0 0 25 25" enable-background="new 0 0 25 25" xml:space="preserve">
<circle fill-rule="evenodd" clip-rule="evenodd" fill="#EE2436" cx="12.5" cy="12.5" r="12.125"/>
<g>
	<path fill-rule="evenodd" clip-rule="evenodd" fill="#FFFFFF" d="M8.451,19.809c0,0.404-0.329,0.733-0.735,0.733H6.482
		c-0.405,0-0.734-0.329-0.734-0.733v-4.421c0-0.405,0.33-0.733,0.734-0.733h1.233c0.407,0,0.735,0.328,0.735,0.733V19.809z"/>
	<path fill-rule="evenodd" clip-rule="evenodd" fill="#FFFFFF" d="M12.338,19.767c0,0.406-0.33,0.735-0.735,0.735H10.37
		c-0.407,0-0.736-0.329-0.736-0.735v-6.24c0-0.407,0.329-0.736,0.736-0.736h1.233c0.405,0,0.735,0.329,0.735,0.736V19.767z"/>
	<path fill-rule="evenodd" clip-rule="evenodd" fill="#FFFFFF" d="M16.31,19.767c0,0.406-0.328,0.735-0.735,0.735h-1.231
		c-0.406,0-0.735-0.329-0.735-0.735v-8.14c0-0.405,0.329-0.734,0.735-0.734h1.231c0.407,0,0.735,0.329,0.735,0.734V19.767z"/>
	<path fill-rule="evenodd" clip-rule="evenodd" fill="#FFFFFF" d="M20.282,19.767c0,0.406-0.329,0.735-0.734,0.735h-1.231
		c-0.406,0-0.733-0.329-0.733-0.735V9.723c0-0.405,0.327-0.734,0.733-0.734h1.231c0.405,0,0.734,0.329,0.734,0.734V19.767z"/>
	<circle fill-rule="evenodd" clip-rule="evenodd" fill="#FFFFFF" cx="6.382" cy="9.423" r="1.795"/>
	
		<rect x="5.911" y="7.162" transform="matrix(0.9541 -0.2996 0.2996 0.9541 -1.671 4.1601)" fill-rule="evenodd" clip-rule="evenodd" fill="#FFFFFF" width="13.643" height="0.736"/>
	<path fill-rule="evenodd" clip-rule="evenodd" fill="#FFFFFF" d="M18.406,4.688c0.342-0.38,1.838-0.037,1.991,0.454
		c0.152,0.491-0.894,1.683-1.374,1.51C18.541,6.477,18.064,5.067,18.406,4.688z"/>
</g>
</svg>
