<?xml version="1.0" encoding="utf-8"?>
<!-- Generator: Adobe Illustrator 16.0.3, SVG Export Plug-In . SVG Version: 6.00 Build 0)  -->
<!DOCTYPE svg PUBLIC "-//W3C//DTD SVG 1.1//EN" "http://www.w3.org/Graphics/SVG/1.1/DTD/svg11.dtd">
<svg version="1.1" id="Layer_1" xmlns="http://www.w3.org/2000/svg" xmlns:xlink="http://www.w3.org/1999/xlink" x="0px" y="0px"
	 width="25px" height="25px" viewBox="0 0 25 25" enable-background="new 0 0 25 25" xml:space="preserve">
<circle fill-rule="evenodd" clip-rule="evenodd" fill="#EE2436" cx="12.5" cy="12.5" r="12.125"/>
<g>
	<path fill-rule="evenodd" clip-rule="evenodd" fill="#FFFFFF" d="M14.161,16.877c0.65,0,1.301,0,1.95,0
		c0.093,0,0.188-0.007,0.278,0.011c0.198,0.038,0.333,0.201,0.307,0.392c-0.019,0.137-0.172,0.268-0.289,0.365
		c-0.063,0.052-0.179,0.037-0.271,0.037c-1.323,0.002-2.647,0.003-3.971,0.001c-0.405-0.001-0.598-0.141-0.591-0.415
		c0.007-0.283,0.172-0.391,0.601-0.391C12.838,16.877,13.5,16.877,14.161,16.877z"/>
	<path fill-rule="evenodd" clip-rule="evenodd" fill="#FFFFFF" d="M14.113,8.153c-0.649,0-1.3,0-1.95-0.001
		c-0.093,0-0.189,0.009-0.277-0.013c-0.188-0.047-0.342-0.182-0.298-0.392c0.029-0.144,0.165-0.276,0.281-0.376
		c0.059-0.051,0.179-0.024,0.271-0.024c1.323-0.001,2.647-0.001,3.971,0c0.394,0,0.604,0.146,0.6,0.411
		c-0.005,0.262-0.209,0.395-0.611,0.395C15.438,8.154,14.775,8.153,14.113,8.153z"/>
	<path fill-rule="evenodd" clip-rule="evenodd" fill="#FFFFFF" d="M14.114,11.331c-0.65,0-1.3,0-1.951-0.001
		c-0.092,0-0.189,0.01-0.276-0.013c-0.186-0.05-0.313-0.173-0.31-0.396c0.004-0.222,0.134-0.341,0.321-0.387
		c0.077-0.019,0.161-0.011,0.242-0.011c1.335,0,2.671,0,4.007,0c0.022,0,0.046,0,0.069,0c0.299,0.009,0.497,0.174,0.494,0.409
		s-0.197,0.389-0.506,0.398c-0.14,0.003-0.279,0.001-0.418,0.001C15.229,11.331,14.672,11.331,14.114,11.331z"/>
	<path fill-rule="evenodd" clip-rule="evenodd" fill="#FFFFFF" d="M14.139,14.507c-0.662,0-1.324,0.002-1.986-0.001
		c-0.103-0.001-0.234,0.017-0.302-0.043c-0.114-0.099-0.261-0.257-0.255-0.383c0.007-0.127,0.17-0.26,0.287-0.36
		c0.052-0.044,0.156-0.019,0.237-0.019c1.348-0.001,2.693-0.001,4.041,0.001c0.092,0,0.211-0.023,0.271,0.027
		c0.109,0.094,0.25,0.23,0.257,0.356c0.006,0.121-0.122,0.28-0.23,0.367c-0.08,0.064-0.221,0.051-0.336,0.052
		C15.462,14.509,14.8,14.507,14.139,14.507z"/>
	<path fill-rule="evenodd" clip-rule="evenodd" fill="#FFFFFF" d="M11.506,6.81c-0.026,0.049-0.065,0.159-0.134,0.236
		c-0.563,0.635-1.132,1.266-1.701,1.896C9.511,9.119,9.343,9.11,9.186,8.933c-0.258-0.29-0.514-0.582-0.769-0.875
		C8.277,7.896,8.25,7.718,8.414,7.563C8.56,7.424,8.718,7.458,8.85,7.599c0.124,0.132,0.247,0.269,0.354,0.417
		c0.154,0.213,0.269,0.24,0.457,0.015c0.396-0.478,0.822-0.925,1.237-1.384c0.057-0.062,0.114-0.13,0.185-0.17
		C11.274,6.365,11.501,6.515,11.506,6.81z"/>
	<path fill-rule="evenodd" clip-rule="evenodd" fill="#FFFFFF" d="M11.508,9.975c-0.028,0.047-0.067,0.153-0.135,0.229
		c-0.553,0.628-1.109,1.253-1.667,1.875c-0.172,0.192-0.351,0.229-0.538,0.009c-0.244-0.287-0.497-0.564-0.745-0.847
		c-0.139-0.159-0.176-0.336-0.016-0.495c0.158-0.156,0.321-0.108,0.46,0.048c0.137,0.154,0.276,0.306,0.403,0.47
		c0.117,0.152,0.204,0.147,0.331,0.001c0.414-0.475,0.84-0.939,1.263-1.407c0.064-0.072,0.128-0.15,0.207-0.199
		C11.261,9.54,11.491,9.678,11.508,9.975z"/>
	<path fill-rule="evenodd" clip-rule="evenodd" fill="#FFFFFF" d="M9.37,14.548c0.505-0.511,0.991-0.996,1.471-1.489
		c0.288-0.296,0.433-0.349,0.579-0.166c0.215,0.268,0.005,0.437-0.144,0.604c-0.514,0.582-1.027,1.164-1.55,1.735
		c-0.238,0.261-0.347,0.254-0.583-0.001c-0.237-0.257-0.465-0.526-0.698-0.789c-0.147-0.165-0.214-0.348-0.033-0.521
		c0.176-0.17,0.342-0.087,0.485,0.079C9.069,14.201,9.243,14.4,9.37,14.548z"/>
	<path fill-rule="evenodd" clip-rule="evenodd" fill="#FFFFFF" d="M9.05,17.285c-0.006-0.522,0.364-0.938,0.845-0.946
		c0.488-0.01,0.9,0.426,0.896,0.947c-0.004,0.489-0.428,0.94-0.88,0.938C9.438,18.22,9.056,17.804,9.05,17.285z"/>
	<path fill="#FFFFFF" d="M17.549,20.881H7.452c-0.695,0-1.26-0.61-1.26-1.36V5.354c0-0.75,0.565-1.359,1.26-1.359h10.097
		c0.695,0,1.26,0.61,1.26,1.359v14.167C18.809,20.271,18.244,20.881,17.549,20.881z M7.452,5.13c-0.118,0-0.213,0.1-0.213,0.224
		v14.167c0,0.123,0.095,0.225,0.213,0.225h10.097c0.117,0,0.212-0.102,0.212-0.225V5.354c0-0.124-0.095-0.224-0.212-0.224H7.452z"/>
</g>
</svg>
