<?xml version="1.0" encoding="utf-8"?>
<!-- Generator: Adobe Illustrator 16.0.3, SVG Export Plug-In . SVG Version: 6.00 Build 0)  -->
<!DOCTYPE svg PUBLIC "-//W3C//DTD SVG 1.1//EN" "http://www.w3.org/Graphics/SVG/1.1/DTD/svg11.dtd">
<svg version="1.1" id="Layer_1" xmlns="http://www.w3.org/2000/svg" xmlns:xlink="http://www.w3.org/1999/xlink" x="0px" y="0px"
	 width="25px" height="25px" viewBox="0 0 25 25" enable-background="new 0 0 25 25" xml:space="preserve">
<circle fill-rule="evenodd" clip-rule="evenodd" fill="#46BA80" cx="12.5" cy="12.5" r="12.125"/>
<g>
	<path fill="#FFFFFF" d="M20.796,6.829c0,0.545-0.476,0.986-1.061,0.986h-3.083c-0.586,0-1.06-0.441-1.06-0.986l0,0
		c0-0.544,0.474-0.986,1.06-0.986h3.083C20.32,5.842,20.796,6.284,20.796,6.829L20.796,6.829z"/>
	<path fill="#FFFFFF" d="M20.796,9.504c0,0.544-0.476,0.986-1.061,0.986h-3.083c-0.586,0-1.06-0.442-1.06-0.986l0,0
		c0-0.544,0.474-0.986,1.06-0.986h3.083C20.32,8.518,20.796,8.959,20.796,9.504L20.796,9.504z"/>
	<path fill="#FFFFFF" d="M20.796,12.032c0,0.544-0.476,0.988-1.061,0.988h-3.083c-0.586,0-1.06-0.443-1.06-0.988l0,0
		c0-0.545,0.474-0.986,1.06-0.986h3.083C20.32,11.045,20.796,11.487,20.796,12.032L20.796,12.032z"/>
	<path fill="#FFFFFF" d="M20.796,14.602c0,0.545-0.476,0.986-1.061,0.986h-3.083c-0.586,0-1.06-0.441-1.06-0.986l0,0
		c0-0.545,0.474-0.984,1.06-0.984h3.083C20.32,13.617,20.796,14.057,20.796,14.602L20.796,14.602z"/>
	<path fill="#FFFFFF" d="M20.796,17.172c0,0.545-0.476,0.986-1.061,0.986h-3.083c-0.586,0-1.06-0.441-1.06-0.986l0,0
		c0-0.545,0.474-0.988,1.06-0.988h3.083C20.32,16.184,20.796,16.627,20.796,17.172L20.796,17.172z"/>
	<path fill="#FFFFFF" d="M15.046,12.032c0,0.544-0.474,0.988-1.06,0.988h-3.084c-0.585,0-1.059-0.443-1.059-0.988l0,0
		c0-0.545,0.474-0.986,1.059-0.986h3.084C14.572,11.045,15.046,11.487,15.046,12.032L15.046,12.032z"/>
	<path fill="#FFFFFF" d="M15.046,14.602c0,0.545-0.474,0.986-1.06,0.986h-3.084c-0.585,0-1.059-0.441-1.059-0.986l0,0
		c0-0.545,0.474-0.984,1.059-0.984h3.084C14.572,13.617,15.046,14.057,15.046,14.602L15.046,14.602z"/>
	<path fill="#FFFFFF" d="M15.046,17.172c0,0.545-0.474,0.986-1.06,0.986h-3.084c-0.585,0-1.059-0.441-1.059-0.986l0,0
		c0-0.545,0.474-0.988,1.059-0.988h3.084C14.572,16.184,15.046,16.627,15.046,17.172L15.046,17.172z"/>
	<path fill="#FFFFFF" d="M9.408,14.602c0,0.545-0.476,0.986-1.06,0.986H5.265c-0.585,0-1.06-0.441-1.06-0.986l0,0
		c0-0.545,0.475-0.984,1.06-0.984h3.084C8.933,13.617,9.408,14.057,9.408,14.602L9.408,14.602z"/>
	<path fill="#FFFFFF" d="M9.408,17.172c0,0.545-0.476,0.986-1.06,0.986H5.265c-0.585,0-1.06-0.441-1.06-0.986l0,0
		c0-0.545,0.475-0.988,1.06-0.988h3.084C8.933,16.184,9.408,16.627,9.408,17.172L9.408,17.172z"/>
</g>
</svg>
