<?xml version="1.0" encoding="utf-8"?>
<!-- Generator: Adobe Illustrator 16.0.3, SVG Export Plug-In . SVG Version: 6.00 Build 0)  -->
<!DOCTYPE svg PUBLIC "-//W3C//DTD SVG 1.1//EN" "http://www.w3.org/Graphics/SVG/1.1/DTD/svg11.dtd">
<svg version="1.1" id="Layer_1" xmlns="http://www.w3.org/2000/svg" xmlns:xlink="http://www.w3.org/1999/xlink" x="0px" y="0px"
	 width="25px" height="25px" viewBox="0 0 25 25" enable-background="new 0 0 25 25" xml:space="preserve">
<path fill-rule="evenodd" clip-rule="evenodd" fill="#22262C" d="M17.092,1.352c-2.281,2.262-4.538,4.501-6.899,6.843
	C9.768,7.731,9.286,7.172,8.761,6.659C8.6,6.504,8.258,6.358,8.096,6.428C7.927,6.503,7.78,6.844,7.783,7.067
	c0.04,3.19,0.095,6.382,0.194,9.573c0.007,0.217,0.392,0.601,0.61,0.607c3.19,0.103,6.381,0.159,9.573,0.198
	c0.212,0.003,0.51-0.177,0.614-0.358c0.07-0.124-0.074-0.457-0.218-0.601c-0.596-0.596-1.229-1.153-1.784-1.666
	c2.401-2.378,4.694-4.649,6.949-6.882c1.64,2.848,1.8,9.412-3.107,13.758C16.07,25.721,9.251,25.78,4.671,21.819
	C0.074,17.845-0.893,11.033,2.474,5.956C6.425,0,13.24-0.401,17.092,1.352z"/>
</svg>
