<?xml version="1.0" encoding="utf-8"?>
<!-- Generator: Adobe Illustrator 16.0.3, SVG Export Plug-In . SVG Version: 6.00 Build 0)  -->
<!DOCTYPE svg PUBLIC "-//W3C//DTD SVG 1.1//EN" "http://www.w3.org/Graphics/SVG/1.1/DTD/svg11.dtd">
<svg version="1.1" id="Layer_1" xmlns="http://www.w3.org/2000/svg" xmlns:xlink="http://www.w3.org/1999/xlink" x="0px" y="0px"
	 width="25px" height="25px" viewBox="0 0 25 25" enable-background="new 0 0 25 25" xml:space="preserve">
<path fill-rule="evenodd" clip-rule="evenodd" d="M24.365,18.787c-1.061,0.848-2.286,1.303-3.623,1.328
	c-0.954,0.02-1.895-0.223-2.691-0.805c-0.357-0.262-0.702-0.359-1.117-0.188c-0.094,0.039-0.205,0.045-0.311,0.055
	c-0.588,0.059-1.053,0.242-1.375,0.826c-0.285,0.518-0.827,0.832-1.43,1.156c-0.475-0.795-0.947-1.584-1.405-2.352
	c0.538-0.92,0.513-1.473-0.052-1.895c-0.568-0.42-1.154-0.273-1.841,0.502c-0.514-0.143-1.055-0.295-1.634-0.457
	c0.142-0.443,0.276-0.84,0.4-1.24c0.13-0.428,0.111-0.604-0.272-0.699c-0.949-0.234-1.234-0.902-1.323-1.756
	c-0.025-0.229-0.101-0.452-0.163-0.723c0.217-0.239,0.439-0.489,0.668-0.732c0.479-0.51,0.961-1.013,1.442-1.521
	c0.361-0.382,0.798-0.725,0.592-1.42c0.762-0.046,1.43-0.118,2.099-0.113c0.535,0.002,0.855-0.197,1.091-0.677
	c0.475-0.968,1.001-1.911,1.506-2.862c0.119-0.22,0.244-0.439,0.405-0.726c0.408,0.173,0.803,0.312,1.17,0.501
	c1.106,0.572,2.056,1.331,2.771,2.363c0.215,0.307,0.388,0.667,0.883,0.611c0,0.2,0.045,0.351-0.01,0.438
	c-0.137,0.212-0.07,0.39,0.004,0.596c0.169,0.462,0.133,0.578-0.274,0.836c-0.429,0.272-0.875,0.516-1.309,0.778
	c-0.85,0.518-1.684,1.056-2.41,1.853c0.339,1.162,0.684,2.347,1.046,3.597c1.771-0.521,3.314-1.371,4.885-2.373
	c0.148,0.234,0.308,0.422,0.401,0.639c0.532,1.223,1.043,2.449,1.571,3.672c0.078,0.188,0.2,0.357,0.304,0.533
	C24.365,18.619,24.365,18.703,24.365,18.787z M21.056,17.645c0.293,0.586,0.438,1.156,0.814,1.623
	c0.601-0.215,1.174-0.35,1.626-0.793c-0.266-0.611-0.524-1.201-0.803-1.842C22.124,16.984,21.615,17.301,21.056,17.645z
	 M17.828,18.186c0.829-0.281,1.558-0.512,2.266-0.922c-0.217-0.449-0.414-0.855-0.625-1.293c-0.703,0.287-1.356,0.551-2.046,0.834
	C17.562,17.277,17.684,17.693,17.828,18.186z M15.129,16.672c-0.127-0.711-0.221-1.334-0.351-1.949
	c-0.168-0.787-0.054-1.51,0.406-2.172c0.06-0.087,0.109-0.181,0.18-0.298c-0.076-0.198-0.153-0.402-0.261-0.679
	c-0.563,0.592-0.893,1.182-0.905,1.913c-0.009,0.592,0.004,1.186,0.033,1.775c0.024,0.494,0.084,0.988,0.134,1.531
	C14.638,16.748,14.84,16.719,15.129,16.672z M20.13,15.67c0.215,0.447,0.409,0.852,0.628,1.309c0.597-0.381,1.19-0.602,1.622-1.115
	c-0.174-0.391-0.336-0.768-0.518-1.178C21.249,15.033,20.707,15.342,20.13,15.67z M15.938,11.592
	c0.124-0.083,0.209-0.138,0.291-0.194c0.906-0.609,1.812-1.219,2.718-1.826c0.122-0.08,0.264-0.136,0.375-0.229
	c0.168-0.141,0.141-0.285-0.031-0.409c-1.098,0.326-3.026,1.472-3.546,2.119C15.799,11.207,15.859,11.376,15.938,11.592z
	 M20.403,17.969c-0.661,0.266-1.244,0.502-1.878,0.754c0.844,0.588,1.88,0.809,2.489,0.543
	C20.82,18.852,20.626,18.443,20.403,17.969z M15.674,13.377c-0.05,0-0.102-0.002-0.153-0.002c-0.045,0.215-0.154,0.438-0.123,0.641
	c0.117,0.82,0.278,1.639,0.429,2.486c0.191-0.047,0.293-0.066,0.388-0.1c0.094-0.033,0.182-0.082,0.313-0.145
	C16.237,15.279,15.957,14.328,15.674,13.377z M15.867,18.539c0.503,0.033,0.871-0.055,1.249-0.271
	c-0.141-0.438-0.271-0.846-0.409-1.283c-0.319,0.107-0.567,0.191-0.83,0.281c0.021,0.24,0.053,0.424,0.051,0.607
	C15.924,18.074,15.893,18.277,15.867,18.539z M15.066,18.719c0.174-0.479,0.209-0.879,0.059-1.336
	c-0.258,0.059-0.489,0.111-0.774,0.178c0.023,0.416,0.043,0.777,0.066,1.158C14.681,18.719,14.86,18.719,15.066,18.719z"/>
<path fill-rule="evenodd" clip-rule="evenodd" d="M11.284,21.707c-0.786-0.283-1.576-0.564-2.362-0.854
	c-0.565-0.207-1.115-0.205-1.655,0.076c-0.429,0.223-0.862,0.438-1.364,0.691c-1.28-1.756-2.21-3.672-2.877-5.834
	c0.727,0.152,1.387,0.258,2.029,0.434c0.555,0.15,1.015,0.102,1.457-0.295c0.344-0.309,0.747-0.549,1.164-0.848
	c0.322,0.139,0.646,0.279,1.032,0.445c-0.122,0.375-0.237,0.729-0.353,1.082c-0.236,0.723-0.207,0.777,0.497,0.979
	c0.285,0.082,0.569,0.162,0.856,0.234c0.45,0.113,0.871,0.221,1.12,0.707c0.101,0.201,0.444,0.277,0.677,0.408
	c0.138,0.08,0.332,0.125,0.406,0.242c0.45,0.711,0.873,1.438,1.333,2.213c-0.4,0.119-0.736,0.221-1.07,0.318
	C11.878,21.707,11.582,21.707,11.284,21.707z"/>
<path fill-rule="evenodd" clip-rule="evenodd" d="M2.492,13.039c0.835-0.467,1.572-0.877,2.307-1.29
	c0.669-0.375,0.667-0.375,0.434-1.137c-0.042-0.136-0.077-0.274-0.13-0.475c0.288-0.037,0.533-0.097,0.776-0.091
	c0.503,0.013,0.828-0.192,1.057-0.646c0.283-0.563,0.623-1.1,0.945-1.646c0.08-0.14,0.183-0.269,0.309-0.448
	c0.443,0.423,0.867,0.803,1.263,1.209c0.312,0.32,0.27,0.805-0.081,1.18c-0.706,0.755-1.405,1.519-2.135,2.25
	c-0.295,0.293-0.365,0.586-0.258,0.968c0.114,0.404,0.178,0.825,0.299,1.228c0.091,0.299-0.021,0.475-0.237,0.652
	c-1.17,0.973-1.168,0.977-2.663,0.654c-0.493-0.105-0.984-0.215-1.547-0.338C2.719,14.426,2.607,13.748,2.492,13.039z"/>
<path fill-rule="evenodd" clip-rule="evenodd" d="M12.304,6.735c-0.914-0.04-1.801-0.072-2.687-0.118
	C9.5,6.611,9.341,6.574,9.278,6.492C8.769,5.833,8.111,5.268,8.109,4.314C8.106,3.773,7.975,3.233,7.89,2.62
	c2.423-0.666,4.757-0.375,7.067,0.704C14.063,4.473,13.207,5.573,12.304,6.735z"/>
<path fill-rule="evenodd" clip-rule="evenodd" d="M5.733,3.99c0.167,0.615,0.31,1.141,0.468,1.731
	c-0.489,0.792-0.995,1.62-1.512,2.441C4.627,8.26,4.512,8.357,4.403,8.388c-1.15,0.324-2.306,0.636-3.536,0.97
	C1.585,6.727,3.342,5.148,5.733,3.99z"/>
<path fill-rule="evenodd" clip-rule="evenodd" d="M1.59,13.33c-0.334-0.738-0.613-1.362-0.906-2.008
	c0.441-0.467,0.842-0.89,1.275-1.35c0.324,0.221,0.615,0.419,0.963,0.656c-0.215,0.454-0.415,0.887-0.623,1.314
	C2.095,12.354,1.881,12.761,1.59,13.33z"/>
</svg>
