<?xml version="1.0" encoding="utf-8"?>
<!-- Generator: Adobe Illustrator 16.0.3, SVG Export Plug-In . SVG Version: 6.00 Build 0)  -->
<!DOCTYPE svg PUBLIC "-//W3C//DTD SVG 1.1//EN" "http://www.w3.org/Graphics/SVG/1.1/DTD/svg11.dtd">
<svg version="1.1" id="Layer_1" xmlns="http://www.w3.org/2000/svg" xmlns:xlink="http://www.w3.org/1999/xlink" x="0px" y="0px"
	 width="25px" height="25px" viewBox="0 0 25 25" enable-background="new 0 0 25 25" xml:space="preserve">
<path fill="#FFFFFF" d="M24.365,18.787c-1.061,0.848-2.286,1.303-3.623,1.328c-0.954,0.02-1.895-0.223-2.691-0.805
	c-0.357-0.263-0.701-0.359-1.117-0.188c-0.094,0.039-0.205,0.045-0.311,0.055c-0.588,0.06-1.053,0.242-1.375,0.826
	c-0.285,0.519-0.827,0.832-1.43,1.156c-0.476-0.795-0.947-1.584-1.405-2.353c0.538-0.92,0.513-1.473-0.052-1.895
	c-0.568-0.42-1.154-0.273-1.841,0.502c-0.514-0.143-1.055-0.295-1.634-0.457c0.142-0.443,0.276-0.84,0.4-1.24
	c0.13-0.428,0.111-0.604-0.272-0.699c-0.949-0.233-1.234-0.901-1.323-1.756c-0.025-0.229-0.101-0.452-0.163-0.723
	c0.217-0.239,0.439-0.489,0.668-0.732c0.479-0.51,0.961-1.013,1.442-1.521c0.361-0.382,0.798-0.725,0.592-1.42
	c0.762-0.046,1.43-0.118,2.099-0.113c0.535,0.002,0.854-0.197,1.091-0.677c0.475-0.968,1.001-1.911,1.506-2.862
	c0.119-0.22,0.244-0.439,0.405-0.726c0.408,0.173,0.803,0.312,1.17,0.501c1.106,0.572,2.056,1.331,2.771,2.363
	c0.215,0.307,0.389,0.667,0.883,0.611c0,0.2,0.046,0.351-0.01,0.438c-0.137,0.212-0.069,0.39,0.004,0.596
	c0.17,0.462,0.134,0.578-0.273,0.836c-0.43,0.272-0.875,0.516-1.309,0.778c-0.851,0.518-1.685,1.056-2.41,1.853
	c0.339,1.162,0.684,2.347,1.046,3.597c1.771-0.521,3.313-1.371,4.885-2.373c0.147,0.234,0.308,0.422,0.401,0.64
	c0.531,1.223,1.043,2.448,1.57,3.672c0.078,0.188,0.2,0.356,0.305,0.533C24.365,18.619,24.365,18.703,24.365,18.787z M21.057,17.645
	c0.293,0.586,0.438,1.156,0.813,1.623c0.601-0.215,1.174-0.35,1.626-0.793c-0.266-0.61-0.523-1.201-0.803-1.842
	C22.124,16.984,21.615,17.301,21.057,17.645z M17.828,18.186c0.829-0.281,1.558-0.512,2.266-0.922
	c-0.217-0.449-0.414-0.854-0.625-1.293c-0.703,0.287-1.355,0.551-2.046,0.834C17.563,17.277,17.684,17.693,17.828,18.186z
	 M15.129,16.672c-0.127-0.711-0.221-1.334-0.352-1.949c-0.168-0.787-0.053-1.51,0.406-2.172c0.061-0.087,0.109-0.181,0.181-0.298
	c-0.076-0.198-0.153-0.402-0.261-0.679c-0.563,0.592-0.894,1.182-0.905,1.912c-0.009,0.593,0.004,1.187,0.032,1.775
	c0.024,0.494,0.084,0.988,0.135,1.531C14.639,16.748,14.84,16.719,15.129,16.672z M20.13,15.67c0.216,0.447,0.409,0.852,0.628,1.309
	c0.598-0.381,1.19-0.602,1.622-1.114c-0.174-0.392-0.336-0.769-0.519-1.179C21.249,15.033,20.707,15.342,20.13,15.67z
	 M15.938,11.592c0.125-0.083,0.209-0.138,0.291-0.194c0.906-0.609,1.813-1.219,2.719-1.826c0.121-0.08,0.264-0.136,0.375-0.229
	c0.168-0.141,0.141-0.285-0.031-0.409c-1.098,0.326-3.025,1.472-3.546,2.119C15.799,11.207,15.859,11.376,15.938,11.592z
	 M20.402,17.969c-0.66,0.266-1.243,0.502-1.877,0.754c0.844,0.588,1.879,0.81,2.488,0.543C20.82,18.852,20.626,18.443,20.402,17.969
	z M15.674,13.377c-0.05,0-0.102-0.002-0.152-0.002c-0.045,0.215-0.154,0.438-0.123,0.641c0.117,0.82,0.277,1.639,0.429,2.486
	c0.19-0.047,0.293-0.066,0.388-0.1c0.094-0.033,0.182-0.082,0.313-0.146C16.236,15.279,15.957,14.328,15.674,13.377z M15.867,18.539
	c0.503,0.033,0.871-0.055,1.249-0.271c-0.142-0.438-0.271-0.846-0.409-1.283c-0.318,0.107-0.566,0.191-0.83,0.281
	c0.021,0.24,0.053,0.424,0.051,0.607C15.924,18.074,15.893,18.277,15.867,18.539z M15.066,18.719
	c0.174-0.479,0.209-0.879,0.059-1.336c-0.258,0.059-0.489,0.111-0.773,0.178c0.022,0.416,0.043,0.777,0.065,1.158
	C14.682,18.719,14.859,18.719,15.066,18.719z"/>
<path fill="#FFFFFF" d="M11.284,21.707c-0.786-0.283-1.576-0.564-2.362-0.854c-0.565-0.207-1.115-0.205-1.655,0.076
	c-0.429,0.223-0.862,0.438-1.364,0.69c-1.28-1.756-2.21-3.672-2.877-5.834c0.727,0.151,1.387,0.258,2.029,0.435
	c0.555,0.149,1.015,0.102,1.457-0.296c0.344-0.309,0.747-0.549,1.164-0.848c0.322,0.139,0.646,0.278,1.032,0.444
	c-0.122,0.375-0.237,0.729-0.353,1.082c-0.236,0.724-0.207,0.777,0.497,0.979c0.285,0.082,0.569,0.162,0.856,0.233
	c0.45,0.113,0.871,0.222,1.12,0.707c0.101,0.201,0.444,0.277,0.677,0.408c0.138,0.08,0.332,0.125,0.406,0.242
	c0.45,0.711,0.873,1.438,1.333,2.213c-0.4,0.119-0.736,0.221-1.07,0.318C11.878,21.707,11.582,21.707,11.284,21.707z"/>
<path fill="#FFFFFF" d="M2.492,13.039c0.835-0.467,1.572-0.877,2.307-1.29c0.669-0.375,0.667-0.375,0.434-1.137
	c-0.042-0.136-0.077-0.274-0.13-0.475c0.288-0.037,0.533-0.097,0.776-0.091C6.382,10.059,6.707,9.854,6.936,9.4
	c0.283-0.563,0.623-1.1,0.945-1.646c0.08-0.14,0.183-0.269,0.309-0.448c0.443,0.423,0.867,0.803,1.263,1.209
	c0.312,0.32,0.27,0.805-0.081,1.18c-0.706,0.755-1.405,1.519-2.135,2.25c-0.295,0.293-0.365,0.586-0.258,0.968
	c0.114,0.403,0.178,0.825,0.299,1.228c0.091,0.299-0.021,0.476-0.237,0.652c-1.17,0.973-1.168,0.977-2.663,0.654
	c-0.493-0.105-0.984-0.215-1.547-0.338C2.719,14.426,2.607,13.748,2.492,13.039z"/>
<path fill="#FFFFFF" d="M12.304,6.735c-0.914-0.04-1.801-0.072-2.687-0.118C9.5,6.611,9.341,6.574,9.278,6.492
	C8.769,5.833,8.111,5.268,8.109,4.314C8.106,3.773,7.975,3.233,7.89,2.62c2.423-0.666,4.757-0.375,7.067,0.704
	C14.063,4.473,13.207,5.573,12.304,6.735z"/>
<path fill="#FFFFFF" d="M5.733,3.99C5.9,4.605,6.043,5.131,6.201,5.721c-0.489,0.792-0.995,1.62-1.512,2.441
	C4.627,8.26,4.512,8.357,4.403,8.388c-1.15,0.324-2.306,0.636-3.536,0.97C1.585,6.727,3.342,5.148,5.733,3.99z"/>
<path fill="#FFFFFF" d="M1.59,13.33c-0.334-0.738-0.613-1.362-0.906-2.008c0.441-0.467,0.842-0.89,1.275-1.35
	c0.324,0.221,0.615,0.419,0.963,0.656c-0.215,0.454-0.415,0.887-0.623,1.314C2.095,12.354,1.881,12.761,1.59,13.33z"/>
</svg>
