<?xml version="1.0" encoding="utf-8"?>
<!-- Generator: Adobe Illustrator 16.0.3, SVG Export Plug-In . SVG Version: 6.00 Build 0)  -->
<!DOCTYPE svg PUBLIC "-//W3C//DTD SVG 1.1//EN" "http://www.w3.org/Graphics/SVG/1.1/DTD/svg11.dtd">
<svg version="1.1" id="Layer_1" xmlns="http://www.w3.org/2000/svg" xmlns:xlink="http://www.w3.org/1999/xlink" x="0px" y="0px"
	 width="25px" height="25px" viewBox="0 0 25 25" enable-background="new 0 0 25 25" xml:space="preserve">
<path fill-rule="evenodd" clip-rule="evenodd" fill="#22262C" d="M13.372,0.44c1.146,0.039,1.061,1.274,1.061,2.25
	c0.002,1.447-0.004,2.895-0.004,4.341c0,0.482,0.003,0.475,0.452,0.488c0.741,0.022,1.494-0.094,2.223,0.136
	c0.695,0.219,1.378,0.446,1.999,0.855c0.521,0.343,0.908,0.815,1.353,1.233c0.803,0.758,1.206,1.736,1.437,2.789
	c0.167,0.777,0.439,1.521,0.714,2.262c0.305,0.819,0.632,1.627,0.92,2.452c0.105,0.305,0.076,0.618-0.235,0.849
	c-0.306,0.225-0.56,0.525-0.885,0.713c-0.188,0.106-0.239,0.188-0.236,0.387c0.01,0.807,0.008,1.612,0.004,2.418
	c-0.004,0.695-0.563,1.25-1.264,1.256c-0.505,0.004-1.015-0.006-1.52,0.002c-0.289,0.006-0.393,0.115-0.397,0.414
	c-0.004,0.461,0,0.921,0,1.382c-2.628,0-5.256,0-7.883,0c-0.16-0.186-0.139-0.41-0.139-0.633c0.002-1.68-0.004-3.359,0.007-5.039
	c0.003-0.25-0.055-0.431-0.249-0.592c-0.394-0.331-0.698-0.741-0.928-1.201c-0.461-0.922-0.823-1.872-0.761-2.927
	c0.012-0.22-0.07-0.28-0.272-0.26c-0.137,0.014-0.275,0.003-0.414,0.003c-1.727,0-3.452,0.008-5.177-0.008
	c-0.327-0.002-0.723,0.016-0.963-0.154c-0.405-0.284-0.795-0.625-0.793-1.241C1.437,9.001,1.434,5.39,1.423,1.776
	C1.42,1.216,1.888,0.44,2.409,0.44 M13.598,7.171c0-1.614,0-3.227,0-4.841c0-0.138,0.011-0.277,0-0.414
	c-0.025-0.309-0.309-0.593-0.617-0.621c-0.113-0.011-0.23-0.003-0.345-0.003c-3.135,0-6.27,0-9.404,0
	c-0.115,0-0.23-0.007-0.345,0.001C2.568,1.322,2.291,1.591,2.26,1.907c-0.011,0.114-0.001,0.23-0.001,0.345c0,3.273,0,6.545,0,9.819
	c0,0.114-0.008,0.23,0.001,0.345c0.023,0.302,0.31,0.604,0.605,0.631c0.16,0.014,0.323,0.003,0.484,0.003
	c2.005,0,4.01-0.002,6.016,0.001c0.373,0,0.373,0.007,0.5,0.382c0.247,0.737,0.702,1.338,1.306,1.801
	c0.297,0.229,0.683,0.348,1.035,0.499c0.216,0.091,0.444,0.155,0.67,0.217c0.047,0.012,0.146-0.034,0.162-0.076
	c0.02-0.048-0.008-0.143-0.05-0.179c-0.325-0.284-0.422-0.709-0.652-1.04c-0.29-0.417-0.261-0.841-0.252-1.281
	c0.004-0.192,0.123-0.327,0.346-0.325c0.184,0.004,0.37,0.013,0.553-0.001c0.307-0.023,0.59-0.312,0.616-0.621
	c0.011-0.137,0-0.276,0-0.414C13.598,10.398,13.598,8.785,13.598,7.171z M20.651,14.407c0.004-0.542-0.385-0.949-0.82-0.937
	c-0.166,0.005-0.386,0.035-0.479,0.143c-0.162,0.187-0.287,0.432-0.349,0.672c-0.065,0.258,0.521,0.854,0.815,0.827
	c0.201-0.02,0.432-0.105,0.577-0.24C20.541,14.739,20.599,14.509,20.651,14.407z"/>
<path fill-rule="evenodd" clip-rule="evenodd" fill="none" d="M1.423,1.776C1.434,5.39,1.437,9.001,1.42,12.615
	c-0.002,0.616,0.388,0.957,0.793,1.241c0.24,0.17,0.636,0.152,0.963,0.154c1.725,0.016,3.451,0.008,5.177,0.008
	c0.138,0,0.277,0.011,0.414-0.003c0.202-0.021,0.284,0.04,0.272,0.26c-0.062,1.055,0.299,2.005,0.761,2.927
	c0.23,0.46,0.534,0.87,0.928,1.201c0.193,0.161,0.251,0.342,0.249,0.592c-0.011,1.68-0.004,3.359-0.007,5.039
	c0,0.223-0.021,0.447,0.139,0.633"/>
<path fill-rule="evenodd" clip-rule="evenodd" fill="none" d="M13.598,7.171c0,1.614,0,3.227,0,4.841c0,0.138,0.011,0.277,0,0.414
	c-0.025,0.309-0.309,0.597-0.616,0.621c-0.184,0.014-0.37,0.005-0.553,0.001c-0.223-0.002-0.342,0.133-0.346,0.325
	c-0.008,0.44-0.037,0.864,0.252,1.281c0.23,0.331,0.327,0.756,0.652,1.04c0.042,0.036,0.069,0.131,0.05,0.179
	c-0.016,0.042-0.115,0.088-0.162,0.076c-0.226-0.062-0.454-0.126-0.67-0.217c-0.352-0.151-0.738-0.27-1.035-0.499
	c-0.604-0.463-1.059-1.063-1.306-1.801c-0.127-0.375-0.127-0.382-0.5-0.382C7.36,13.048,5.355,13.05,3.35,13.05
	c-0.162,0-0.324,0.011-0.484-0.003C2.57,13.02,2.284,12.718,2.26,12.416c-0.009-0.114-0.001-0.23-0.001-0.345
	c0-3.274,0-6.546,0-9.819c0-0.115-0.01-0.231,0.001-0.345c0.03-0.315,0.308-0.584,0.626-0.612c0.115-0.008,0.23-0.001,0.345-0.001
	c3.134,0,6.27,0,9.404,0c0.115,0,0.232-0.008,0.345,0.003c0.309,0.027,0.592,0.312,0.617,0.621c0.011,0.136,0,0.276,0,0.414
	 M6.406,10C6.35,9.863,6.332,9.744,6.263,9.672c-0.085-0.088-0.209-0.145-0.324-0.2C5.769,9.391,5.701,9.547,5.607,9.633
	C5.505,9.727,5.409,9.825,5.313,9.926c-0.092,0.098-0.183,0.121-0.285,0.016C4.916,9.826,4.813,9.696,4.684,9.603
	C4.393,9.391,4.266,9.432,4.015,9.694c-0.224,0.233-0.057,0.415,0.048,0.592c0.103,0.169,0.383,0.333,0.359,0.455
	c-0.037,0.185-0.274,0.327-0.416,0.495c-0.167,0.197-0.134,0.334,0.12,0.568c0.196,0.182,0.339,0.194,0.52,0.032
	c0.153-0.14,0.284-0.391,0.444-0.407c0.132-0.015,0.292,0.245,0.445,0.372c0.046,0.04,0.119,0.043,0.177,0.069
	C6,12,6.006,11.973,6.288,11.729c0.216-0.187,0.067-0.303-0.018-0.449c-0.044-0.074-0.079-0.154-0.128-0.223
	c-0.092-0.124-0.268-0.245-0.267-0.364c0.003-0.121,0.175-0.243,0.277-0.36c0.061-0.069,0.135-0.126,0.192-0.197
	C6.383,10.086,6.397,10.019,6.406,10z M10.138,7.379c0.711,0,1.423-0.007,2.135,0.004c0.19,0.002,0.234-0.07,0.222-0.239
	c-0.011-0.138,0.012-0.277-0.007-0.412c-0.026-0.192-0.125-0.329-0.348-0.323c-0.069,0.003-0.137,0.001-0.206,0.001
	c-1.147,0-2.295-0.002-3.442,0c-0.552,0.002-0.565,0.02-0.564,0.591c0,0.373,0,0.375,0.352,0.376
	C8.899,7.381,9.519,7.379,10.138,7.379z M10.281,10.007c-0.688,0-1.377,0.017-2.064-0.008c-0.267-0.009-0.325,0.083-0.29,0.312
	c0.007,0.044,0.001,0.091,0.001,0.138c0.006,0.474,0.056,0.524,0.559,0.525c1.147,0.003,2.295,0.001,3.442,0.001
	c0.046,0,0.092,0.002,0.137-0.001c0.328-0.014,0.414-0.105,0.426-0.452c0.001-0.069-0.007-0.138,0.001-0.207
	c0.027-0.218-0.004-0.33-0.284-0.317C11.568,10.026,10.924,10.007,10.281,10.007z M6.876,5.902C6.799,5.76,6.751,5.575,6.629,5.475
	C6.475,5.347,6.185,5.421,6.034,5.616C5.686,6.063,5.355,6.523,5.026,6.985C4.836,7.251,4.661,7.319,4.355,7.19
	C4.238,7.141,4.137,7.052,4.02,7.002C3.794,6.904,3.57,6.999,3.409,7.271C3.301,7.449,3.346,7.623,3.518,7.737
	c0.251,0.166,0.503,0.331,0.77,0.469c0.52,0.268,0.861,0.19,1.213-0.269c0.413-0.538,0.815-1.083,1.212-1.63
	C6.785,6.206,6.81,6.072,6.876,5.902z M6.867,2.446c0.048-0.333-0.236-0.418-0.378-0.575c-0.081-0.09-0.339,0.064-0.497,0.277
	C5.678,2.569,5.37,2.995,5.046,3.409C4.94,3.545,4.805,3.704,4.654,3.744C4.557,3.771,4.41,3.594,4.278,3.523
	C3.995,3.375,3.737,3.39,3.523,3.555c-0.188,0.146-0.229,0.353-0.07,0.516C3.557,4.178,3.692,4.26,3.825,4.334
	C4.085,4.48,4.35,4.617,4.617,4.75c0.337,0.168,0.417,0.137,0.684-0.204c0.37-0.467,0.753-0.925,1.116-1.4
	C6.585,2.926,6.718,2.681,6.867,2.446z M10.212,3.783c0.689,0,1.379-0.001,2.07,0.002c0.131,0.002,0.224-0.015,0.211-0.177
	c-0.007-0.091-0.001-0.184-0.001-0.276c-0.002-0.374-0.002-0.377-0.352-0.377c-1.288-0.002-2.576,0-3.865,0
	c-0.045,0-0.092,0.004-0.138-0.002C8.006,2.938,7.915,2.967,7.927,3.129C7.934,3.22,7.928,3.313,7.928,3.405
	C7.93,3.778,7.93,3.782,8.28,3.783C8.924,3.784,9.569,3.783,10.212,3.783z"/>
<path fill-rule="evenodd" clip-rule="evenodd" fill="#22262C" d="M6.406,10c-0.009,0.019-0.023,0.086-0.062,0.135
	c-0.057,0.071-0.131,0.128-0.192,0.197c-0.103,0.117-0.274,0.239-0.277,0.36c-0.001,0.12,0.175,0.24,0.267,0.364
	c0.049,0.069,0.084,0.149,0.128,0.223c0.085,0.146,0.234,0.262,0.018,0.449C6.006,11.973,6,12,5.711,11.87
	c-0.058-0.025-0.131-0.029-0.177-0.069c-0.154-0.127-0.313-0.387-0.445-0.372c-0.16,0.017-0.291,0.268-0.444,0.407
	c-0.181,0.163-0.324,0.15-0.52-0.032c-0.254-0.234-0.287-0.372-0.12-0.568c0.142-0.168,0.379-0.31,0.416-0.495
	c0.024-0.122-0.256-0.286-0.359-0.455c-0.104-0.177-0.271-0.359-0.048-0.592c0.251-0.262,0.378-0.303,0.669-0.091
	c0.13,0.093,0.232,0.223,0.345,0.339c0.102,0.105,0.193,0.082,0.285-0.016c0.095-0.101,0.192-0.199,0.294-0.292
	c0.094-0.086,0.162-0.243,0.331-0.161c0.115,0.055,0.239,0.111,0.324,0.2C6.332,9.744,6.35,9.863,6.406,10z"/>
<path fill-rule="evenodd" clip-rule="evenodd" fill="#22262C" d="M10.138,7.379c-0.619,0-1.239,0.002-1.858-0.001
	C7.928,7.377,7.928,7.375,7.928,7.002C7.927,6.431,7.941,6.413,8.493,6.411c1.147-0.002,2.295,0,3.442,0
	c0.069,0,0.136,0.002,0.206-0.001c0.222-0.006,0.321,0.131,0.348,0.323c0.019,0.135-0.004,0.274,0.007,0.412
	c0.012,0.168-0.032,0.241-0.222,0.239C11.561,7.373,10.85,7.379,10.138,7.379z"/>
<path fill-rule="evenodd" clip-rule="evenodd" fill="#22262C" d="M10.281,10.007c0.643,0,1.287,0.019,1.928-0.01
	c0.28-0.012,0.312,0.099,0.284,0.317c-0.008,0.069,0,0.138-0.001,0.207c-0.013,0.347-0.099,0.438-0.426,0.452
	c-0.045,0.003-0.091,0.001-0.137,0.001c-1.147,0-2.294,0.002-3.442-0.001c-0.503-0.001-0.553-0.051-0.559-0.525
	c0-0.047,0.006-0.094-0.001-0.138c-0.036-0.229,0.022-0.321,0.29-0.312C8.904,10.023,9.593,10.007,10.281,10.007z"/>
<path fill-rule="evenodd" clip-rule="evenodd" fill="#22262C" d="M6.876,5.902C6.81,6.072,6.785,6.206,6.713,6.307
	c-0.397,0.547-0.8,1.092-1.212,1.63C5.148,8.396,4.808,8.473,4.288,8.206c-0.266-0.138-0.519-0.303-0.77-0.469
	C3.346,7.623,3.301,7.449,3.409,7.271C3.57,6.999,3.794,6.904,4.02,7.002c0.117,0.05,0.218,0.139,0.335,0.188
	c0.306,0.128,0.481,0.061,0.67-0.206c0.33-0.461,0.66-0.921,1.008-1.369c0.151-0.194,0.441-0.269,0.596-0.141
	C6.751,5.575,6.799,5.76,6.876,5.902z"/>
<path fill-rule="evenodd" clip-rule="evenodd" fill="#22262C" d="M6.867,2.446c-0.149,0.234-0.282,0.48-0.45,0.699
	c-0.363,0.475-0.746,0.933-1.116,1.4C5.034,4.886,4.954,4.918,4.617,4.75C4.35,4.617,4.085,4.48,3.825,4.334
	C3.692,4.26,3.557,4.178,3.453,4.071c-0.159-0.163-0.118-0.37,0.07-0.516C3.737,3.39,3.995,3.375,4.278,3.523
	c0.132,0.07,0.278,0.247,0.376,0.221c0.15-0.04,0.286-0.199,0.392-0.335c0.324-0.414,0.632-0.84,0.946-1.261
	c0.157-0.212,0.416-0.367,0.497-0.277C6.631,2.028,6.915,2.114,6.867,2.446z"/>
<path fill-rule="evenodd" clip-rule="evenodd" fill="#22262C" d="M10.212,3.783c-0.644,0-1.288,0.001-1.932,0
	C7.93,3.782,7.93,3.778,7.928,3.405c0-0.092,0.006-0.185-0.001-0.275C7.915,2.967,8.006,2.938,8.138,2.952
	C8.184,2.958,8.23,2.954,8.276,2.954c1.289,0,2.577-0.002,3.865,0c0.35,0,0.35,0.004,0.352,0.377c0,0.092-0.006,0.185,0.001,0.276
	c0.013,0.163-0.08,0.179-0.211,0.177C11.592,3.782,10.902,3.783,10.212,3.783z"/>
</svg>
