<?xml version="1.0" encoding="utf-8"?>
<!-- Generator: Adobe Illustrator 16.0.3, SVG Export Plug-In . SVG Version: 6.00 Build 0)  -->
<!DOCTYPE svg PUBLIC "-//W3C//DTD SVG 1.1//EN" "http://www.w3.org/Graphics/SVG/1.1/DTD/svg11.dtd">
<svg version="1.1" id="Layer_1" xmlns="http://www.w3.org/2000/svg" xmlns:xlink="http://www.w3.org/1999/xlink" x="0px" y="0px"
	 width="25px" height="25px" viewBox="0 0 25 25" enable-background="new 0 0 25 25" xml:space="preserve">
<path fill-rule="evenodd" clip-rule="evenodd" fill="#22262C" d="M24.654,11.183c-0.787,0.929-1.568,1.864-2.366,2.785
	c-0.534,0.618-0.716,0.613-1.248-0.013c-0.706-0.832-1.409-1.667-2.09-2.521c-0.126-0.157-0.242-0.447-0.177-0.597
	c0.062-0.145,0.354-0.236,0.558-0.267c0.298-0.044,0.608-0.019,0.913-0.014c0.39,0.006,0.465-0.145,0.348-0.518
	c-0.473-1.503-1.209-2.85-2.333-3.961C14.086,1.953,7.43,2.588,4.184,7.477c-3.038,4.577-1.295,10.27,2.892,12.82
	c4.238,2.582,9.81,1.243,12.433-2.927c0.472-0.749,1.016-0.954,1.547-0.603c0.496,0.328,0.539,0.91,0.08,1.617
	c-0.883,1.362-2.056,2.527-3.426,3.397c-4.244,2.691-10.312,2.212-13.769-1.524c-1.402-1.515-2.607-3.322-2.936-5.396
	C0.247,10.077,2.213,4.958,6.683,2.666c1.083-0.555,2.45-1.006,3.669-1.106c3.388-0.282,6.651,0.646,9.128,3.031
	c1.517,1.459,2.484,3.233,3.032,5.249c0.193,0.711,0.185,0.697,0.961,0.725c0.395,0.015,0.787,0.105,1.181,0.161
	C24.654,10.878,24.654,11.03,24.654,11.183z"/>
<path fill-rule="evenodd" clip-rule="evenodd" fill="#22262C" d="M12.747,7.866c0,0.889,0.006,1.777-0.002,2.665
	c-0.002,0.316,0.018,0.603,0.297,0.816c0.098,0.074,0.216,0.187,0.231,0.294c0.106,0.776,0.726,1.031,1.303,1.352
	c0.753,0.417,1.494,0.856,2.236,1.295c0.171,0.102,0.348,0.218,0.474,0.369c0.279,0.333,0.262,0.86-0.005,1.203
	c-0.225,0.289-0.705,0.417-1.11,0.232c-0.436-0.2-0.846-0.456-1.265-0.693c-0.462-0.264-0.935-0.512-1.379-0.806
	c-0.518-0.342-0.997-0.57-1.684-0.429c-0.666,0.136-1.217-0.271-1.546-0.886c-0.315-0.588-0.328-1.22,0.113-1.71
	c0.405-0.45,0.444-0.923,0.439-1.463c-0.014-1.548-0.005-3.096-0.004-4.644c0-0.204-0.01-0.409,0.021-0.607
	c0.08-0.531,0.417-0.824,0.92-0.831c0.553-0.005,0.903,0.286,0.944,0.874c0.041,0.607,0.015,1.218,0.016,1.826
	C12.749,7.105,12.747,7.486,12.747,7.866z M11.786,11.676c-0.412,0.014-0.807,0.455-0.775,0.866
	c0.031,0.401,0.406,0.771,0.789,0.775c0.396,0.005,0.831-0.428,0.827-0.824C12.622,12.096,12.176,11.663,11.786,11.676z"/>
</svg>
