<?xml version="1.0" encoding="utf-8"?>
<!-- Generator: Adobe Illustrator 16.0.3, SVG Export Plug-In . SVG Version: 6.00 Build 0)  -->
<!DOCTYPE svg PUBLIC "-//W3C//DTD SVG 1.1//EN" "http://www.w3.org/Graphics/SVG/1.1/DTD/svg11.dtd">
<svg version="1.1" id="Layer_1" xmlns="http://www.w3.org/2000/svg" xmlns:xlink="http://www.w3.org/1999/xlink" x="0px" y="0px"
	 width="25px" height="25px" viewBox="0 0 25 25" enable-background="new 0 0 25 25" xml:space="preserve">
<g>
	<path fill-rule="evenodd" clip-rule="evenodd" fill="#FFFFFF" d="M0.375,16.195c0.022-0.037,0.061-0.072,0.064-0.109
		c0.042-0.568,0.358-0.91,0.877-1.094c0.014-0.004,0.028-0.01,0.042-0.016c-0.028,0.178-0.056,0.357-0.086,0.551
		c0.198-0.016,0.383-0.031,0.568-0.037c0.047,0,0.108,0.02,0.141,0.055c0.117,0.119,0.223,0.248,0.34,0.379
		c0.105-0.131,0.212-0.252,0.307-0.381c0.051-0.07,0.107-0.088,0.188-0.086c0.178,0.006,0.357,0.002,0.549,0.002
		c-0.044-0.18-0.088-0.359-0.131-0.537c1.054,0.004,2.106,0.006,3.16,0.012c0.087,0,0.143-0.027,0.199-0.094
		c0.965-1.119,1.932-2.24,2.897-3.359c0.91-1.055,1.818-2.11,2.728-3.165c0.419-0.487,0.839-0.972,1.257-1.459
		c0.025-0.027,0.046-0.057,0.084-0.105c-0.059-0.009-0.096-0.019-0.133-0.019c-0.553-0.001-1.106-0.002-1.659,0.002
		c-0.055,0.001-0.123,0.034-0.159,0.075c-0.798,0.915-1.592,1.833-2.387,2.749c-0.281,0.325-0.553,0.659-0.854,0.964
		c-0.267,0.271-0.614,0.331-0.974,0.216c-0.343-0.109-0.571-0.347-0.662-0.698C6.637,9.672,6.736,9.356,6.99,9.071
		C7.478,8.522,7.958,7.965,8.44,7.409c0.67-0.772,1.342-1.544,2.01-2.319c0.234-0.271,0.533-0.387,0.88-0.388
		c1.614-0.001,3.228-0.001,4.843,0c0.394,0,0.738,0.135,1.019,0.414c1.023,1.022,2.045,2.044,3.064,3.069
		c0.064,0.064,0.1,0.063,0.162,0.002c0.787-0.788,1.578-1.571,2.364-2.358c0.148-0.149,0.296-0.295,0.497-0.374
		c0.522-0.209,1.162,0.063,1.341,0.617c0.021,0.063,0.021,0.131,0.041,0.193c0.014,0.047,0.042,0.087,0.063,0.131
		c0,0.016,0,0.03,0,0.045c-0.021,0.049-0.058,0.097-0.062,0.147c-0.018,0.215-0.107,0.396-0.255,0.546c-0.991,1-1.984,2-2.979,2.996
		c-0.14,0.139-0.286,0.276-0.446,0.389c-0.468,0.331-1.051,0.257-1.451-0.151c-0.609-0.622-1.229-1.233-1.841-1.852
		c-0.06-0.06-0.097-0.046-0.146,0.01c-0.724,0.844-1.451,1.687-2.177,2.53c-0.247,0.285-0.494,0.571-0.744,0.854
		c-0.061,0.067-0.069,0.104,0.005,0.178c0.902,0.896,1.799,1.794,2.695,2.694c0.07,0.07,0.121,0.16,0.181,0.24
		c-0.095-0.047-0.188-0.094-0.29-0.143c-0.038,0.205-0.069,0.4-0.112,0.59c-0.01,0.043-0.048,0.092-0.086,0.111
		c-0.168,0.086-0.341,0.16-0.52,0.242c0.135,0.156,0.265,0.301,0.386,0.449c0.027,0.035,0.043,0.094,0.038,0.137
		c-0.024,0.188-0.059,0.373-0.092,0.574c0.225-0.014,0.44-0.027,0.653-0.041c-0.055,0.227-0.112,0.453-0.164,0.682
		c-0.061,0.268-0.116,0.535-0.176,0.803c-0.061,0.271-0.123,0.543-0.186,0.814c-0.078,0.342-0.157,0.688-0.234,1.029
		c-0.073,0.33-0.145,0.66-0.218,0.99c-0.074,0.332-0.152,0.664-0.227,0.998c-0.061,0.264-0.115,0.529-0.175,0.793
		c-0.067,0.295-0.116,0.598-0.311,0.848c-0.153,0.197-0.346,0.34-0.574,0.432c-0.03,0.012-0.066,0.01-0.101,0.01
		c-0.201,0-0.403-0.012-0.604,0.004c-0.198,0.014-0.358-0.063-0.508-0.172c-0.325-0.238-0.503-0.563-0.538-0.963
		c0.044,0.039,0.088,0.08,0.138,0.125c0.085-0.105,0.181-0.213,0.265-0.332c0.067-0.094,0.143-0.133,0.261-0.125
		c0.165,0.016,0.333,0.004,0.512,0.004c-0.045-0.18-0.088-0.355-0.137-0.531c-0.021-0.072-0.017-0.129,0.039-0.191
		c0.122-0.139,0.234-0.287,0.354-0.438c-0.17-0.08-0.33-0.16-0.495-0.229c-0.092-0.037-0.138-0.092-0.157-0.191
		c-0.034-0.174-0.086-0.346-0.133-0.525c-0.072,0.051-0.132,0.088-0.189,0.127c0.09-0.404,0.177-0.809,0.269-1.215
		c0.103-0.451,0.211-0.902,0.313-1.355c0.093-0.404,0.182-0.809,0.269-1.217c0.006-0.031-0.014-0.078-0.039-0.104
		c-0.563-0.551-1.129-1.098-1.694-1.646c-0.452-0.439-0.906-0.881-1.355-1.322c-0.067-0.066-0.106-0.08-0.177-0.002
		c-0.852,0.955-1.708,1.906-2.563,2.859c-0.014,0.016-0.025,0.039-0.038,0.057c-0.099-0.045-0.194-0.098-0.296-0.131
		c-0.094-0.033-0.128-0.096-0.149-0.186c-0.039-0.176-0.087-0.348-0.134-0.533c-0.171,0.127-0.328,0.238-0.481,0.357
		c-0.05,0.041-0.09,0.043-0.148,0.01c-0.179-0.102-0.363-0.199-0.553-0.301c-0.038,0.209-0.07,0.402-0.113,0.594
		c-0.009,0.043-0.048,0.092-0.086,0.113c-0.168,0.084-0.341,0.16-0.519,0.242c0.11,0.129,0.214,0.254,0.318,0.375
		C6.224,17.5,5.696,17.5,5.17,17.5c-0.866,0.004-1.731,0.012-2.596,0.012c-0.34,0-0.68,0-1.018-0.02
		c-0.484-0.029-0.943-0.414-1.07-0.885c-0.021-0.076-0.024-0.16-0.045-0.238c-0.013-0.045-0.044-0.086-0.066-0.131
		C0.375,16.225,0.375,16.209,0.375,16.195z M12.57,10.77c-0.162,0.118-0.311,0.218-0.447,0.334c-0.08,0.067-0.141,0.063-0.225,0.012
		c-0.164-0.098-0.333-0.183-0.512-0.28c-0.034,0.192-0.068,0.374-0.098,0.557c-0.013,0.078-0.038,0.132-0.121,0.166
		c-0.167,0.066-0.328,0.15-0.5,0.229c0.134,0.155,0.263,0.294,0.381,0.444c0.029,0.036,0.047,0.099,0.042,0.146
		c-0.023,0.187-0.058,0.372-0.09,0.57c0.2-0.013,0.385-0.029,0.57-0.034c0.047-0.001,0.108,0.02,0.141,0.053
		c0.116,0.12,0.222,0.249,0.338,0.378c0.1-0.123,0.199-0.235,0.286-0.354c0.061-0.085,0.129-0.118,0.234-0.111
		c0.17,0.012,0.341,0.003,0.522,0.003c-0.006-0.032-0.012-0.064-0.02-0.096c-0.039-0.151-0.076-0.304-0.117-0.455
		c-0.016-0.062-0.011-0.108,0.035-0.161c0.125-0.144,0.24-0.294,0.364-0.45c-0.177-0.081-0.344-0.162-0.515-0.236
		c-0.075-0.032-0.116-0.077-0.134-0.159C12.667,11.143,12.619,10.963,12.57,10.77z"/>
	<path fill-rule="evenodd" clip-rule="evenodd" fill="#EC2737" d="M17.482,2.891c-0.041-0.086-0.104-0.105-0.2-0.094
		c-0.176,0.021-0.354,0.025-0.541,0.036c0.032-0.198,0.067-0.383,0.09-0.571c0.006-0.046-0.012-0.107-0.042-0.144
		c-0.119-0.148-0.247-0.29-0.381-0.443c0.177-0.082,0.349-0.156,0.515-0.241c0.04-0.022,0.082-0.073,0.092-0.118
		c0.044-0.192,0.074-0.386,0.113-0.591c0.188,0.102,0.371,0.197,0.551,0.3c0.057,0.033,0.097,0.034,0.148-0.008
		c0.151-0.123,0.308-0.241,0.462-0.362c0.008,0,0.015,0,0.023,0c0.048,0.198,0.096,0.396,0.147,0.592
		c0.009,0.035,0.033,0.079,0.064,0.093c0.173,0.084,0.349,0.16,0.524,0.238c0.005,0.023,0.021,0.052,0.012,0.067
		c-0.028,0.046-0.068,0.087-0.102,0.132c-0.094,0.117-0.235,0.223-0.264,0.354c-0.027,0.135,0.057,0.292,0.093,0.441
		c0.015,0.066,0.031,0.132,0.047,0.195c-0.207,0-0.393-0.004-0.579,0.002c-0.047,0.001-0.105,0.029-0.139,0.064
		C18.004,2.961,17.9,3.097,17.791,3.23C17.683,3.112,17.583,3.001,17.482,2.891z"/>
	<path fill-rule="evenodd" clip-rule="evenodd" fill="#EC2737" d="M17.483,16.941c-0.213,0.014-0.429,0.027-0.653,0.041
		c0.033-0.201,0.067-0.387,0.092-0.574c0.005-0.043-0.011-0.102-0.038-0.137c-0.121-0.148-0.251-0.293-0.386-0.449
		c0.179-0.082,0.352-0.156,0.52-0.242c0.038-0.02,0.076-0.068,0.086-0.111c0.043-0.189,0.074-0.385,0.112-0.59
		c0.102,0.049,0.195,0.096,0.29,0.143c0.097,0.055,0.19,0.115,0.291,0.162c0.03,0.014,0.085,0.002,0.114-0.02
		c0.162-0.111,0.318-0.232,0.488-0.357c0.047,0.189,0.097,0.369,0.137,0.549c0.017,0.084,0.059,0.135,0.138,0.166
		c0.168,0.07,0.331,0.152,0.509,0.234c-0.123,0.154-0.239,0.307-0.363,0.451c-0.046,0.053-0.05,0.1-0.033,0.16
		c0.049,0.182,0.094,0.365,0.14,0.549c-0.201,0-0.391-0.004-0.579,0.002c-0.049,0.002-0.107,0.029-0.139,0.064
		c-0.113,0.127-0.218,0.264-0.326,0.395C17.744,17.227,17.614,17.084,17.483,16.941z"/>
	<path fill-rule="evenodd" clip-rule="evenodd" fill="#EC2737" d="M6.75,17.498c-0.104-0.121-0.208-0.246-0.318-0.375
		c0.177-0.082,0.351-0.158,0.519-0.242c0.038-0.021,0.077-0.07,0.086-0.113c0.043-0.191,0.075-0.385,0.113-0.594
		c0.189,0.102,0.374,0.199,0.553,0.301c0.058,0.033,0.098,0.031,0.148-0.01c0.154-0.119,0.311-0.23,0.481-0.357
		c0.046,0.186,0.095,0.357,0.134,0.533c0.021,0.09,0.055,0.152,0.149,0.186c0.102,0.033,0.197,0.086,0.296,0.131
		c0.065,0.033,0.131,0.064,0.205,0.104c-0.119,0.146-0.232,0.293-0.354,0.436c-0.055,0.061-0.06,0.115-0.039,0.189
		c0.049,0.176,0.091,0.35,0.137,0.531c-0.193,0-0.373,0.006-0.553-0.002c-0.083-0.004-0.138,0.018-0.188,0.086
		c-0.095,0.131-0.2,0.25-0.307,0.379c-0.115-0.129-0.222-0.258-0.337-0.377c-0.033-0.033-0.094-0.057-0.141-0.057
		c-0.188,0.008-0.377,0.023-0.573,0.039c0.03-0.174,0.049-0.332,0.087-0.488C6.88,17.67,6.856,17.574,6.75,17.498z"/>
	<path fill-rule="evenodd" clip-rule="evenodd" fill="#EC2737" d="M13.927,20.902c0.058-0.039,0.117-0.076,0.189-0.127
		c0.047,0.18,0.099,0.352,0.133,0.525c0.02,0.1,0.065,0.154,0.157,0.191c0.165,0.068,0.325,0.148,0.495,0.229
		c-0.12,0.15-0.232,0.299-0.354,0.438c-0.056,0.063-0.06,0.119-0.039,0.191c0.049,0.176,0.092,0.352,0.137,0.531
		c-0.179,0-0.347,0.012-0.512-0.004c-0.118-0.008-0.193,0.031-0.261,0.125c-0.084,0.119-0.18,0.227-0.265,0.332
		c-0.05-0.045-0.094-0.086-0.138-0.125c-0.074-0.088-0.145-0.182-0.227-0.264c-0.027-0.027-0.085-0.035-0.127-0.033
		c-0.186,0.006-0.372,0.023-0.568,0.035c0.033-0.201,0.067-0.391,0.093-0.58c0.005-0.041-0.01-0.096-0.036-0.127
		c-0.122-0.148-0.251-0.295-0.389-0.453c0.175-0.08,0.347-0.154,0.513-0.24c0.041-0.021,0.083-0.072,0.093-0.117
		c0.043-0.193,0.075-0.387,0.114-0.592c0.188,0.104,0.371,0.197,0.551,0.301c0.058,0.035,0.099,0.033,0.149-0.01
		C13.729,21.049,13.829,20.979,13.927,20.902z"/>
	<path fill-rule="evenodd" clip-rule="evenodd" fill="#FFFFFF" d="M17.482,2.891c0.101,0.11,0.2,0.221,0.309,0.339
		c0.109-0.133,0.213-0.269,0.326-0.396c0.033-0.035,0.092-0.063,0.139-0.064c0.187-0.007,0.372-0.002,0.579-0.002
		c-0.016-0.063-0.032-0.128-0.047-0.195c-0.036-0.148-0.12-0.306-0.093-0.441c0.028-0.131,0.17-0.237,0.264-0.354
		c0.033-0.045,0.073-0.086,0.102-0.132c0.01-0.015-0.007-0.044-0.012-0.067c0.098-0.021,0.195-0.042,0.293-0.062
		c0.015-0.003,0.028-0.008,0.043-0.006c0.525,0.088,1.034,0.218,1.422,0.62c0.258,0.267,0.437,0.581,0.529,0.941
		c0.131,0.513,0.06,0.999-0.193,1.463c-0.277,0.51-0.7,0.831-1.255,0.98c-0.663,0.178-1.257,0.026-1.789-0.396
		c-0.341-0.271-0.55-0.623-0.668-1.041C17.314,3.674,17.335,3.281,17.482,2.891z"/>
	<path fill-rule="evenodd" clip-rule="evenodd" fill="#EC2737" d="M3.233,14.922c0.043,0.178,0.087,0.357,0.131,0.537
		c-0.192,0-0.371,0.004-0.549-0.002c-0.081-0.002-0.138,0.016-0.188,0.086c-0.095,0.129-0.201,0.25-0.307,0.381
		c-0.117-0.131-0.223-0.26-0.34-0.379C1.948,15.51,1.887,15.49,1.84,15.49c-0.186,0.006-0.371,0.021-0.568,0.037
		c0.03-0.193,0.059-0.373,0.086-0.551c0.031-0.07,0.009-0.123-0.042-0.178C1.19,14.66,1.07,14.518,0.938,14.365
		c0.169-0.078,0.328-0.162,0.495-0.227c0.089-0.033,0.112-0.092,0.125-0.172c0.031-0.18,0.063-0.359,0.097-0.551
		c0.183,0.1,0.36,0.189,0.533,0.289c0.07,0.041,0.119,0.045,0.186-0.008c0.148-0.119,0.303-0.229,0.466-0.348
		c0.048,0.193,0.095,0.377,0.139,0.563c0.016,0.068,0.047,0.113,0.117,0.143c0.175,0.076,0.344,0.16,0.529,0.242
		C3.501,14.449,3.388,14.6,3.264,14.74C3.213,14.801,3.201,14.854,3.233,14.922z"/>
	<path fill-rule="evenodd" clip-rule="evenodd" fill="#EC2737" d="M12.57,10.77c0.048,0.193,0.097,0.373,0.136,0.554
		c0.018,0.082,0.059,0.127,0.134,0.159c0.171,0.074,0.338,0.155,0.515,0.236c-0.124,0.155-0.239,0.306-0.364,0.45
		c-0.045,0.053-0.051,0.1-0.035,0.161c0.041,0.151,0.078,0.304,0.117,0.455c0.008,0.031,0.014,0.063,0.02,0.096
		c-0.181,0-0.352,0.009-0.522-0.003c-0.105-0.007-0.173,0.026-0.234,0.111c-0.087,0.119-0.186,0.231-0.286,0.354
		c-0.116-0.129-0.222-0.258-0.338-0.378c-0.032-0.033-0.094-0.054-0.141-0.053c-0.186,0.005-0.371,0.021-0.57,0.034
		c0.032-0.198,0.067-0.384,0.09-0.57c0.005-0.047-0.013-0.109-0.042-0.146c-0.119-0.149-0.247-0.289-0.381-0.444
		c0.172-0.08,0.333-0.164,0.5-0.229c0.083-0.033,0.108-0.087,0.121-0.166c0.03-0.183,0.064-0.365,0.098-0.557
		c0.179,0.097,0.348,0.183,0.512,0.28c0.083,0.05,0.145,0.055,0.225-0.012C12.26,10.988,12.409,10.888,12.57,10.77z"/>
</g>
</svg>
