<?xml version="1.0" encoding="utf-8"?>
<!-- Generator: Adobe Illustrator 16.0.3, SVG Export Plug-In . SVG Version: 6.00 Build 0)  -->
<!DOCTYPE svg PUBLIC "-//W3C//DTD SVG 1.1//EN" "http://www.w3.org/Graphics/SVG/1.1/DTD/svg11.dtd">
<svg version="1.1" id="Layer_1" xmlns="http://www.w3.org/2000/svg" xmlns:xlink="http://www.w3.org/1999/xlink" x="0px" y="0px"
	 width="25px" height="25px" viewBox="0 0 25 25" enable-background="new 0 0 25 25" xml:space="preserve">
<g>
	<path fill-rule="evenodd" clip-rule="evenodd" fill="#FFFFFF" d="M12.709,23.955c-0.739-0.114-1.463-0.303-2.153-0.576
		c-0.451-0.181-0.889-0.404-1.307-0.651c-0.687-0.408-0.89-1.14-0.527-1.774c0.358-0.619,1.118-0.827,1.822-0.43
		c2.309,1.287,4.672,1.43,7.096,0.358c3-1.329,4.708-4.65,4.099-7.919c-0.581-3.115-3.353-5.575-6.551-5.856
		c-1.86-0.166-3.542,0.281-5.064,1.319C9.624,8.77,9.115,8.852,8.579,8.52C8.119,8.237,7.856,7.804,8,7.306
		c0.103-0.367,0.364-0.761,0.674-0.988c1.28-0.939,2.755-1.465,4.328-1.72c0.245-0.835,0.176-0.926-0.714-0.918
		c-0.704,0.006-1.251-0.369-1.395-0.958c-0.155-0.642,0.077-1.099,0.754-1.468c1.851-0.004,3.699-0.008,5.549-0.012
		c0.648,0.339,0.919,0.821,0.788,1.392c-0.15,0.629-0.637,0.997-1.345,1.012c-0.292,0.006-0.582,0.002-0.922,0.002
		c0.014,0.369,0.029,0.65,0.041,0.936c1.808,0.269,3.395,0.921,4.89,2.035c0.326-0.361,0.605-0.702,0.923-1.008
		c0.616-0.602,1.367-0.646,1.92-0.13c0.569,0.531,0.562,1.304-0.064,1.933c-0.321,0.324-0.71,0.59-0.976,0.809
		c0.515,0.993,0.979,1.784,1.342,2.618c2.22,5.106-1.226,11.855-6.828,12.991C15.58,24.108,14.116,24.17,12.709,23.955z"/>
	<path fill-rule="evenodd" clip-rule="evenodd" fill="#FFFFFF" d="M0.526,18.011c0.312-0.524,0.78-0.687,1.391-0.678
		c1.79,0.024,3.581,0.041,5.368-0.003c1.008-0.025,1.38,0.547,1.371,1.051c-0.013,0.548-0.453,1.051-1.402,1.025
		c-1.769-0.055-3.538-0.039-5.304-0.004c-0.616,0.01-1.077-0.158-1.423-0.642C0.526,18.509,0.526,18.261,0.526,18.011z"/>
	<path fill-rule="evenodd" clip-rule="evenodd" fill="#FFFFFF" d="M14.418,16.338c-1.034,0.002-1.931-0.811-2.007-1.808
		c-0.082-1.117,0.652-1.981,1.758-2.167c0.392-0.068,0.795-0.244,1.119-0.468c0.728-0.511,1.411-1.077,2.102-1.628
		c0.414-0.331,0.84-0.44,1.246-0.033c0.411,0.409,0.28,0.815-0.066,1.217c-0.45,0.526-0.877,1.07-1.311,1.608
		c-0.428,0.527-0.864,0.999-0.91,1.772C16.3,15.68,15.325,16.331,14.418,16.338z"/>
	<path fill-rule="evenodd" clip-rule="evenodd" fill="#FFFFFF" d="M7.177,10.151c0.958,0,1.915-0.003,2.871,0
		c0.735,0.005,1.194,0.393,1.2,1c0.007,0.615-0.378,1-1.1,1.009c-1.657,0.025-3.316,0.012-4.976,0.014
		c-0.358,0-0.721,0.033-1.073-0.011c-0.621-0.08-0.945-0.486-0.913-1.063c0.032-0.548,0.444-0.936,1.057-0.944
		C5.224,10.141,6.2,10.151,7.177,10.151z"/>
	<path fill-rule="evenodd" clip-rule="evenodd" fill="#FFFFFF" d="M5.931,13.752c0.959,0,1.917-0.007,2.878,0
		c0.691,0.007,1.194,0.456,1.181,1.041c-0.015,0.574-0.471,0.994-1.164,0.998c-1.938,0.014-3.878,0.016-5.815,0
		c-0.736-0.007-1.189-0.436-1.175-1.048c0.012-0.603,0.479-0.988,1.221-0.991C4.016,13.746,4.975,13.752,5.931,13.752z"/>
</g>
</svg>
