<?xml version="1.0" encoding="utf-8"?>
<!-- Generator: Adobe Illustrator 16.0.3, SVG Export Plug-In . SVG Version: 6.00 Build 0)  -->
<!DOCTYPE svg PUBLIC "-//W3C//DTD SVG 1.1//EN" "http://www.w3.org/Graphics/SVG/1.1/DTD/svg11.dtd">
<svg version="1.1" id="Layer_1" xmlns="http://www.w3.org/2000/svg" xmlns:xlink="http://www.w3.org/1999/xlink" x="0px" y="0px"
	 width="25px" height="25px" viewBox="0 0 25 25" enable-background="new 0 0 25 25" xml:space="preserve">
<path fill-rule="evenodd" clip-rule="evenodd" fill="#FFFFFF" d="M14.241,24.17c-6.265,0.899-11.993-3.683-13.39-9.83
	c0.005-0.229,0.008-0.456,0.013-0.685c1.442-0.008,2.886,0.013,4.327-0.036c0.603-0.021,0.886,0.132,1.083,0.757
	c0.999,3.133,4.085,5.021,7.336,4.513c1.699-0.266,3.072-1.116,4.367-2.704c-0.947-0.796-1.853-1.555-2.759-2.315
	c0.043-0.059,0.085-0.118,0.128-0.176c2.954,0,5.908,0,8.862,0c0.003,2.711,0.013,5.423,0.003,8.135
	c-0.002,0.284-0.119,0.565-0.181,0.85c-0.785-0.852-1.572-1.702-2.395-2.593c0.469,0.506-4.769,3.396-5.256,3.564
	C15.664,23.896,14.949,24.067,14.241,24.17z"/>
<path fill-rule="evenodd" clip-rule="evenodd" fill="#FFFFFF" d="M11.026,0.721c4.005-0.542,8.221,0.788,10.696,4.25
	c1.007,1.411,2.027,3.339,2.427,5.035c0.046,0.198,0.154,0.38,0.233,0.569c0,0.163,0,0.326,0,0.489
	c-1.55-0.011-3.101-0.042-4.65-0.02c-0.522,0.008-0.74-0.157-0.914-0.663c-0.803-2.374-2.458-3.87-4.894-4.458
	c-2.455-0.594-5.405,0.513-6.58,2.472c0.805,0.819,1.625,1.653,2.444,2.485C9.748,10.941,9.708,11,9.671,11.06
	c-2.934,0-5.866,0-8.799,0C0.869,8.345,0.861,5.629,0.874,2.914c0-0.282,0.118-0.565,0.181-0.849
	c0.791,0.849,1.583,1.699,2.354,2.524c0.233-0.163,0.311-0.2,0.365-0.256C5.688,2.321,8.31,1.09,11.026,0.721z"/>
</svg>
