<?xml version="1.0" encoding="utf-8"?>
<!-- Generator: Adobe Illustrator 16.0.3, SVG Export Plug-In . SVG Version: 6.00 Build 0)  -->
<!DOCTYPE svg PUBLIC "-//W3C//DTD SVG 1.1//EN" "http://www.w3.org/Graphics/SVG/1.1/DTD/svg11.dtd">
<svg version="1.1" id="Layer_1" xmlns="http://www.w3.org/2000/svg" xmlns:xlink="http://www.w3.org/1999/xlink" x="0px" y="0px"
	 width="25px" height="25px" viewBox="0 0 25 25" enable-background="new 0 0 25 25" xml:space="preserve">
<g>
	<path fill-rule="evenodd" clip-rule="evenodd" fill="#FFFFFF" d="M12.875,1.879c0.026,0.007,0.051,0.019,0.077,0.02
		c0.556,0.01,1.049,0.225,1.531,0.474c0.668,0.345,1.221,0.841,1.732,1.384c0.094,0.099,0.095,0.283,0.009,0.364
		c-0.109,0.103-0.272,0.1-0.397-0.013c-0.145-0.131-0.286-0.265-0.426-0.4c-0.479-0.463-1.023-0.829-1.645-1.072
		c-0.329-0.128-0.674-0.206-1.03-0.226c-0.766-0.043-1.454,0.19-2.089,0.592c-0.25,0.158-0.48,0.346-0.713,0.526
		C9.792,3.628,9.651,3.638,9.555,3.537C9.46,3.436,9.459,3.233,9.57,3.139c0.209-0.177,0.42-0.353,0.643-0.511
		c0.421-0.299,0.884-0.521,1.386-0.646c0.216-0.054,0.442-0.07,0.663-0.104C12.467,1.879,12.671,1.879,12.875,1.879z"/>
	<path fill-rule="evenodd" clip-rule="evenodd" fill="#FFFFFF" d="M16.844,8.272c0,0.253,0.017,0.508-0.004,0.759
		c-0.032,0.395-0.096,0.787-0.136,1.182c-0.04,0.384-0.185,0.731-0.386,1.051c-0.208,0.331-0.441,0.647-0.684,0.956
		c-0.308,0.392-0.689,0.711-1.088,1.006c-0.205,0.152-0.422,0.293-0.648,0.41c-0.288,0.15-0.584,0.297-0.892,0.402
		c-0.176,0.061-0.382,0.063-0.572,0.047c-0.736-0.057-1.31-0.479-1.875-0.895c-0.358-0.263-0.701-0.557-1.01-0.877
		c-0.47-0.487-0.877-1.029-1.126-1.668c-0.105-0.271-0.158-0.556-0.191-0.85c-0.079-0.725-0.067-1.45-0.076-2.176
		c-0.003-0.27-0.021-0.54-0.021-0.81c0-0.237,0.142-0.333,0.353-0.346c0.129-0.007,0.218,0.082,0.227,0.212
		C8.745,7.1,8.771,7.522,8.797,7.946c0.036,0.555,0.054,1.113,0.114,1.666c0.04,0.366,0.188,0.707,0.381,1.024
		c0.245,0.408,0.558,0.76,0.885,1.104c0.496,0.521,1.063,0.943,1.696,1.276c0.553,0.291,1.097,0.232,1.619-0.107
		c0.486-0.317,0.947-0.669,1.357-1.077c0.369-0.368,0.734-0.746,0.964-1.225c0.152-0.316,0.255-0.65,0.287-1.001
		c0.036-0.399,0.052-0.801,0.113-1.195c0.05-0.315,0.028-0.629,0.048-0.944c0.006-0.095,0.032-0.189,0.052-0.283
		c0.02-0.092,0.077-0.169,0.171-0.154c0.098,0.016,0.211,0.053,0.275,0.12c0.059,0.063,0.077,0.178,0.081,0.271
		C16.85,7.704,16.844,7.989,16.844,8.272z"/>
	<path fill-rule="evenodd" clip-rule="evenodd" fill="#FFFFFF" d="M10.146,14.453c-0.012,0.645-0.307,1.129-0.849,1.443
		c-0.584,0.338-1.182,0.656-1.79,0.947c-0.465,0.223-0.943,0.426-1.458,0.516c-0.425,0.074-0.852,0.137-1.275,0.213
		c-0.539,0.096-1.031,0.299-1.456,0.652c-0.563,0.469-0.972,1.049-1.242,1.727c-0.196,0.49-0.325,0.998-0.34,1.529
		c-0.012,0.43-0.033,0.857-0.053,1.287c-0.003,0.07-0.01,0.145-0.036,0.207c-0.093,0.225-0.295,0.119-0.455,0.137
		c-0.112,0.012-0.213-0.037-0.218-0.162c-0.009-0.186,0.002-0.373,0.005-0.559c0.001-0.035,0.013-0.07,0.014-0.105
		c0.01-0.305,0.005-0.611,0.031-0.914c0.039-0.459,0.124-0.906,0.276-1.344c0.149-0.424,0.333-0.83,0.573-1.205
		c0.244-0.385,0.539-0.73,0.889-1.029c0.281-0.24,0.575-0.455,0.912-0.607c0.294-0.135,0.596-0.242,0.921-0.283
		c0.358-0.043,0.719-0.082,1.07-0.162c0.591-0.131,1.164-0.326,1.705-0.605c0.439-0.227,0.885-0.443,1.321-0.68
		c0.176-0.096,0.35-0.211,0.493-0.352c0.221-0.217,0.289-0.502,0.24-0.807c-0.067-0.422-0.147-0.842-0.211-1.264
		c-0.008-0.056,0.035-0.156,0.081-0.176c0.076-0.034,0.183-0.051,0.261-0.024c0.285,0.099,0.419,0.316,0.444,0.613
		c0.018,0.197,0.059,0.393,0.088,0.59C10.107,14.174,10.126,14.313,10.146,14.453z"/>
	<path fill-rule="evenodd" clip-rule="evenodd" fill="#FFFFFF" d="M23.771,22.674c-0.051-0.492-0.089-0.984-0.156-1.475
		c-0.109-0.811-0.393-1.564-0.793-2.273c-0.293-0.518-0.656-0.975-1.17-1.293c-0.342-0.213-0.714-0.332-1.115-0.389
		c-0.431-0.061-0.858-0.15-1.282-0.25c-0.902-0.213-1.722-0.639-2.559-1.02c-0.437-0.199-0.812-0.475-1.096-0.857
		c-0.188-0.252-0.312-0.537-0.384-0.852c-0.08-0.348-0.029-0.697-0.048-1.045c-0.006-0.109,0.035-0.189,0.141-0.231
		c0.046-0.018,0.089-0.043,0.133-0.063c0.211-0.1,0.408,0.023,0.416,0.259c0.009,0.26,0.009,0.521,0.028,0.781
		c0.026,0.332,0.162,0.619,0.38,0.871c0.239,0.277,0.558,0.434,0.878,0.584c0.309,0.145,0.614,0.297,0.931,0.422
		c0.397,0.156,0.801,0.303,1.211,0.426c0.357,0.105,0.726,0.18,1.092,0.256c0.229,0.047,0.464,0.055,0.69,0.105
		c0.414,0.096,0.786,0.289,1.128,0.539c0.719,0.527,1.211,1.23,1.551,2.043c0.157,0.379,0.312,0.764,0.42,1.158
		c0.173,0.631,0.27,1.277,0.247,1.938c-0.007,0.189,0.02,0.379,0.022,0.57c0.002,0.166-0.056,0.227-0.22,0.232
		c-0.089,0.006-0.178,0.006-0.267,0c-0.142-0.006-0.197-0.066-0.203-0.209c-0.003-0.076-0.001-0.15-0.001-0.227
		C23.754,22.676,23.762,22.674,23.771,22.674z"/>
	<path fill-rule="evenodd" clip-rule="evenodd" fill="#FFFFFF" d="M3.003,5.954c0.016,0.092,0.037,0.17,0.041,0.248
		c0.011,0.2-0.125,0.323-0.32,0.279C2.215,6.366,1.707,6.246,1.202,6.117c-0.21-0.053-0.259-0.26-0.091-0.404
		c0.412-0.354,0.833-0.7,1.255-1.043c0.123-0.1,0.276-0.044,0.327,0.105C2.724,4.867,2.749,4.96,2.778,5.057
		c0.291-0.059,0.57-0.125,0.853-0.171c0.36-0.06,0.723-0.12,1.086-0.151C5.376,4.676,6.039,4.638,6.7,4.595
		C6.938,4.58,7.177,4.572,7.416,4.569c0.218-0.002,0.289,0.072,0.29,0.287c0,0.106,0,0.213,0,0.319
		c-0.001,0.182-0.101,0.29-0.283,0.298C7.183,5.484,6.944,5.486,6.706,5.501c-0.63,0.041-1.263,0.064-1.89,0.137
		C4.234,5.707,3.659,5.829,3.08,5.928C3.055,5.932,3.031,5.945,3.003,5.954z"/>
	<path fill-rule="evenodd" clip-rule="evenodd" fill="#FFFFFF" d="M14.896,5.926c-0.461-0.082-0.901-0.175-1.347-0.235
		c-0.513-0.069-1.028-0.11-1.542-0.16c-0.158-0.016-0.317-0.021-0.477-0.028c-0.367-0.019-0.733-0.037-1.1-0.055
		c-0.161-0.007-0.243-0.079-0.244-0.236c-0.001-0.146,0.007-0.292,0.026-0.437c0.02-0.158,0.098-0.23,0.256-0.229
		c0.226,0.002,0.452,0.015,0.676,0.029c0.164,0.01,0.325,0.035,0.488,0.045c0.353,0.022,0.708,0.024,1.059,0.061
		c0.491,0.051,0.98,0.125,1.469,0.195c0.288,0.042,0.574,0.098,0.862,0.138c0.034,0.005,0.101-0.034,0.111-0.067
		c0.13-0.39,0.276-0.423,0.584-0.147c0.333,0.298,0.676,0.586,1.013,0.88c0.081,0.07,0.166,0.146,0.129,0.271
		c-0.037,0.122-0.141,0.163-0.252,0.189c-0.461,0.108-0.921,0.219-1.384,0.324c-0.316,0.072-0.437-0.051-0.367-0.372
		C14.867,6.047,14.879,6,14.896,5.926z"/>
	<path fill-rule="evenodd" clip-rule="evenodd" fill="#FFFFFF" d="M8.928,5.98c-0.12,0-0.24,0-0.36,0
		C8.246,5.979,8.079,5.87,8.047,5.559c-0.033-0.32-0.03-0.648,0-0.968c0.025-0.275,0.188-0.422,0.464-0.438
		c0.305-0.016,0.612-0.009,0.916,0.021c0.262,0.025,0.402,0.205,0.408,0.472c0.007,0.288,0.007,0.578,0,0.866
		C9.827,5.782,9.614,5.978,9.34,5.98C9.203,5.981,9.065,5.98,8.928,5.98z"/>
</g>
</svg>
