<?xml version="1.0" encoding="utf-8"?>
<!-- Generator: Adobe Illustrator 16.0.3, SVG Export Plug-In . SVG Version: 6.00 Build 0)  -->
<!DOCTYPE svg PUBLIC "-//W3C//DTD SVG 1.1//EN" "http://www.w3.org/Graphics/SVG/1.1/DTD/svg11.dtd">
<svg version="1.1" id="Layer_1" xmlns="http://www.w3.org/2000/svg" xmlns:xlink="http://www.w3.org/1999/xlink" x="0px" y="0px"
	 width="25px" height="25px" viewBox="0 0 25 25" enable-background="new 0 0 25 25" xml:space="preserve">
<path fill-rule="evenodd" clip-rule="evenodd" fill="#22262C" d="M8.13,23.513c2.281-2.262,4.537-4.5,6.898-6.843
	c0.425,0.463,0.907,1.022,1.434,1.534c0.161,0.157,0.501,0.304,0.663,0.231c0.17-0.073,0.316-0.415,0.313-0.637
	c-0.039-3.191-0.095-6.383-0.194-9.574c-0.007-0.218-0.392-0.602-0.609-0.608c-3.189-0.101-6.381-0.158-9.572-0.197
	C6.849,7.417,6.552,7.597,6.447,7.779c-0.07,0.124,0.075,0.457,0.218,0.6c0.596,0.594,1.229,1.152,1.784,1.666
	c-2.4,2.377-4.693,4.647-6.95,6.881C-0.14,14.078-0.3,7.516,4.607,3.17C9.152-0.855,15.97-0.916,20.55,3.045
	c4.598,3.976,5.564,10.786,2.197,15.863C18.796,24.865,11.981,25.267,8.13,23.513z"/>
</svg>
