<?xml version="1.0" encoding="utf-8"?>
<!-- Generator: Adobe Illustrator 16.0.3, SVG Export Plug-In . SVG Version: 6.00 Build 0)  -->
<!DOCTYPE svg PUBLIC "-//W3C//DTD SVG 1.1//EN" "http://www.w3.org/Graphics/SVG/1.1/DTD/svg11.dtd">
<svg version="1.1" id="Layer_1" xmlns="http://www.w3.org/2000/svg" xmlns:xlink="http://www.w3.org/1999/xlink" x="0px" y="0px"
	 width="25px" height="25px" viewBox="0 0 25 25" enable-background="new 0 0 25 25" xml:space="preserve">
<g>
	<text transform="matrix(1 0 0 1 3.5303 22.3994)" fill="#22262C" font-family="'BrandonGrotesque-Bold'" font-size="27.8403">0</text>
	<path fill="#22262C" d="M19.444,1.49c-1.006,1.165-2.013,2.33-3.019,3.496c-2.128,2.463-4.256,4.928-6.384,7.392
		c-1.915,2.216-3.83,4.433-5.744,6.649c-0.499,0.576-0.996,1.154-1.495,1.73c-0.347,0.402-0.57,0.83-0.57,1.377
		c0,0.514,0.207,1.012,0.57,1.375c0.709,0.709,2.058,0.803,2.752,0c1.006-1.164,2.013-2.33,3.019-3.496
		c2.128-2.465,4.257-4.928,6.384-7.391c1.915-2.217,3.829-4.434,5.744-6.65c0.499-0.576,0.996-1.154,1.494-1.73
		c0.347-0.403,0.57-0.831,0.57-1.376c0-0.514-0.206-1.013-0.57-1.376C21.488,0.781,20.138,0.688,19.444,1.49L19.444,1.49z"/>
</g>
</svg>
